<?xml version="1.0" encoding="UTF-8"?> <svg xmlns="http://www.w3.org/2000/svg" xmlns:xlink="http://www.w3.org/1999/xlink" version="1.1" id="Layer_1" x="0px" y="0px" viewBox="0 0 181.9 102.6" style="enable-background:new 0 0 181.9 102.6;" xml:space="preserve"> <style type="text/css"> .st0{clip-path:url(#SVGID_00000177472912081100131140000014464686132279101878_);} .st1{fill:#F49600;} .st2{fill:#009FE3;} .st3{fill:#EB5B25;} .st4{fill:#CAD400;} .st5{fill:#E5007D;} </style> <g> <defs> <rect id="SVGID_1_" width="181.9" height="102.6"></rect> </defs> <clipPath id="SVGID_00000103958601936873907080000014664935921268482200_"> <use xlink:href="#SVGID_1_" style="overflow:visible;"></use> </clipPath> <g id="Park_Lingezegen_logo_slogan_zwart" style="clip-path:url(#SVGID_00000103958601936873907080000014664935921268482200_);"> <path id="Path_239" class="st1" d="M47.3,41.6c0.1,0,0.1-0.1,0.2-0.2C47.4,41.5,47.3,41.5,47.3,41.6"></path> <path id="Path_240" class="st1" d="M29,44.8L29,44.8C29.1,44.7,29,44.8,29,44.8"></path> <path id="Path_241" class="st1" d="M61.5,20.2c0.1,0,0-0.1,0-0.2L61.5,20.2z"></path> <path id="Path_242" class="st1" d="M56,8.7c0,0,0.1,0.1,0.1,0.1L56,8.7z"></path> <path id="Path_243" class="st1" d="M29.1,38.4L29.1,38.4C29,38.4,29,38.4,29.1,38.4C29,38.4,29,38.4,29.1,38.4"></path> <path id="Path_244" class="st1" d="M28.9,40.5c0.3,0.4,0.6,0.9,0.7,1.4c-0.1-0.1-0.1,0-0.1-0.1c0.1,0.6,0.3,0.3,0.4,0.6 c-0.2-0.7-0.4-1.3-0.7-2C29.1,40.5,29,40.5,28.9,40.5"></path> <path id="Path_245" class="st1" d="M28.6,38.9c0,0,0.1,0,0.1,0.1c0-0.1,0-0.1-0.1-0.2C28.6,38.8,28.6,38.9,28.6,38.9"></path> <path id="Path_246" class="st1" d="M59.3,14.2l-0.2,0.3c0.1,0,0.2,0.1,0.3,0.1C59.3,14.5,59.3,14.3,59.3,14.2"></path> <path id="Path_247" class="st1" d="M54.7,12.5l0.2,0.2l0,0C54.8,12.6,54.7,12.5,54.7,12.5"></path> <path id="Path_248" class="st1" d="M29,38.9c0-0.2-0.1-0.4,0-0.5c-0.2-0.1-0.5-0.4-0.5-0.2C28.7,38.3,28.8,38.8,29,38.9"></path> <path id="Path_249" class="st1" d="M18.9,32.3c0,0.1,0.1,0.1,0.1,0.2c0,0,0,0,0,0C19,32.4,18.9,32.3,18.9,32.3"></path> <path id="Path_250" class="st1" d="M35.6,42.3L35.6,42.3c-0.1,0.1-0.2,0.3-0.2,0.4l0,0c0.3-0.7,0.2-0.2,0.4-0.3 c0,0.1-0.2,0.2-0.3,0.4c0,0.1,0.1,0.1,0.1,0.2c0,0.5,1,1.7,1.4,2.7c-0.6-0.3-0.8-0.9-1.2-1.5c0.1,0.1,0.3,0.4,0.2,0.1 c-0.2-0.4-0.5-0.5-0.6-0.9l-0.2,0h0c0,0-0.1,0-0.1,0l-0.1,0c0,0,0,0,0,0C35.1,43.2,35,43.1,35,43c0,0.1-0.1,0.1-0.1,0.2 c0.4,0.4,0.8,0.9,0.9,1.4c-0.2-0.5-0.7-1.1-0.6-0.5c0.3,0.5,0.7,1,1.1,1.5c-0.2-0.2-0.9-1.3-0.7-0.6c0.4,0.4,0.5,1.1,1,1.3 c0.5,0.4,0.2-0.6,0.6-0.2c-0.1,0,0.6,0.8,0.8,0.8c0.1,0.3-0.1,0.4,0.4,0.9c0,0,0.1,0.1,0.1,0.1c0,0,0.1,0,0.1,0 c0.1-0.1,0-0.2,0-0.2c0,0.1,0,0.1,0.1,0.2c0.1,0,0.3,0,0.4,0c1.1-0.1,2.9,0.2,3.3-0.4l-0.1,0.2c0.6,0,1.2,0,1.8,0 c1.4-0.2,2.8-0.6,4.1-1.3l0.4,0.1c0.9-0.9,3.6-2,3.8-3.1c0.6-0.2,0,0.4,0,0.5c0.5-0.2,0.8-1.1,1.4-1.1c0.1,0.1-0.5,0.5-0.2,0.4 c0.4-0.1,0.3-0.5,0.8-0.5c-0.3,0,0.2-0.8,0.6-1.2c0,0-0.1,0.1-0.1,0.1c-0.2-0.1,0.2-0.3,0.3-0.5c0,0,0,0.1,0,0.1 c2.1-2.4,3.8-5.2,5.1-8.1l-0.1,0.6c0.1-0.5,0.3-1,0.5-1.4v0.1c0.6-0.7-0.1-1,0.5-1.6v0.1c0.4-0.8,0.6-1.7,0.6-2.6 c0.2-0.4,0.3-0.8,0.6-1.2c0-0.3,0-0.5-0.2-0.7l0,0.2c-0.2,0.2-0.1-0.5-0.2-0.8c-0.3,0.2-0.8,0.1-1.2,1c0.1,0.7-0.5,0.6-0.5,1.3 c0.4,0.5-0.5,1-0.2,1.7c-0.2-0.4-0.3,0.7-0.5,0.1c-0.3,0.2-0.1,1.4-0.5,1.8c0-0.1-0.1-0.1-0.1-0.2c-0.1,0.7-0.4,0.4-0.5,0.9 l0.3,0.1c0,0.2-0.2,0.2-0.2,0.4c0.1-0.1,0.3-0.4,0.4-0.2c0,0.2,0,0.5-0.1,0.7c-0.1,0-0.1-0.2-0.1-0.4c0,0-0.2,0.5-0.4,0.5 c0-0.2,0-0.5,0-0.7c-0.3,0.7-0.1,0-0.4,0.3c0.4,0.1-0.1,0.6-0.2,1c-0.1,0,0.1-0.3,0-0.4c-0.9,0.4-0.3,1.1-1,1.8c0,0,0-0.2,0-0.2 c-0.2,0.4-0.6,0.5-0.6,0.9c-0.3,0.3-0.4-0.2-0.7,0.4c0.4,0.1-0.5,0.6-0.2,0.8l-0.5,0.3c-0.1,0.5,0.6,0.3,0,1 c-0.6,0.5-0.4-0.5-0.9-0.3l0,0.3l-0.4,0.2l0-0.1c-0.1,0.2-0.5,0.4-0.5,0.4c0-0.1,0.1-0.3,0.1-0.3c-0.2,0.4-1.4,0.6-1.4,1.3 c-0.2,0.1-0.6,0.3-0.7,0.1c0,0.3-0.8,0.5-1,0.8c0-0.1-0.3-0.1-0.5,0.1c0.3-0.1,0.2,0.1,0.1,0.3c-0.3,0-0.9,0.5-1.1,0.2 c-0.3,0.3-0.1,0.5,0,0.7c-0.3-0.1-1.1,0.4-1.1,0c0.2,0,0.7-0.2,0.5-0.4c-0.4,0.1-0.1,0.2-0.4,0.4c0-0.1-0.3-0.1-0.3-0.2 c-0.2,0.1-0.5,0.2-0.7,0.2c0.5,0-0.2,0.3,0.1,0.4l0.3-0.4c0.5-0.2,0.2,0.1,0.4,0.2c-0.9,0.4-0.6,0.7-1.4,1.1c-0.2,0-0.4,0-0.6,0 c0.1,0,0.2-0.1,0.2-0.2c0-0.1-0.1-0.2-0.2-0.2c-0.4,0.4-0.9,0.1-1.3,0.1c0.4,0,0.2,0.3,0.1,0.4c-0.8,0.3-0.4-0.1-0.7-0.2 c-1.3,0.3-2.1-0.2-3.2,0.1c0.2,0.1,0.3,0.2,0.5,0.3L41,43c0.4,0.2-0.1,0.6-0.3,0.8c-0.1-0.1-0.7-0.1-0.5-0.2l-0.7,0.1 c0.1,0.1,0.5,0.1,0.2,0.2c-0.2-0.1-0.9-0.2-0.4-0.3c-0.3,0-0.8,0-0.7,0.2c-0.5-0.1,0.1-0.3,0.3-0.4c-0.4,0-0.3-0.3-0.2-0.4 L38.2,43c0.1-0.1,0.2-0.2,0.3-0.2c-0.4-0.2-0.7,0.1-1-0.2l-0.2,0.2c-0.5-0.3-1.1-0.5-1.6-0.7C35.7,42.2,35.7,42.2,35.6,42.3 L35.6,42.3L35.6,42.3z"></path> <path id="Path_251" class="st1" d="M18.9,32.3c0-0.1-0.1-0.1-0.1-0.2C18.8,32.2,18.9,32.2,18.9,32.3"></path> <path id="Path_252" class="st1" d="M55.8,12.9c-0.2-0.2-0.5-0.2-0.8-0.1c0,0,0,0,0,0.1c-0.1,0-0.1,0-0.2-0.1l0,0 c0.1,0.1,0.1,0.1,0.2,0.2c0,0,0,0,0.1,0C55.4,12.9,55.6,12.9,55.8,12.9"></path> <path id="Path_253" class="st1" d="M61.3,24.3c0.1,0,0.1,0.1,0.2,0.1c0.1-0.1,0.2-0.2,0.1-0.2c-0.4,0-0.7,0-0.8,0 c0,0.2,0.1,0.4,0.2,0.6c0-0.1-0.1-0.3,0-0.3c0,0.1,0.1,0.2,0.1,0.3c0.1-0.1,0.2-0.1,0.3-0.2C61.3,24.5,61.3,24.4,61.3,24.3"></path> <path id="Path_254" class="st1" d="M61.3,25.3C61.3,25.3,61.3,25.3,61.3,25.3C61.3,25.3,61.3,25.3,61.3,25.3 C61.3,25.3,61.3,25.3,61.3,25.3"></path> <path id="Path_255" class="st1" d="M47.4,8c0.7,0,1.4,0.1,2,0.4c0.1-0.2,0.5,0.2,0.6-0.1c-0.6-0.6-1.5-0.3-2-0.9 c-0.4,0-0.3,0.2-0.5,0.3c-0.3-0.1-0.6-0.2-0.6-0.4c0.7,0.1,0.4-0.5,1.3-0.1c0-0.1-0.1-0.2-0.3-0.2C47.6,7,47.4,7.1,47.1,7 c0.2-0.1,0.5-0.2,0.7-0.2c-0.2-0.1-0.5-0.2-0.6-0.3c-0.3,0.2-0.7,0.4-1,0.6C46.7,7.3,47.2,7.4,47.4,8"></path> <path id="Path_256" class="st1" d="M61.3,18.6C61.3,18.6,61.4,18.6,61.3,18.6c0-0.1,0-0.2-0.1-0.3l0,0 C61.2,18.4,61.3,18.5,61.3,18.6"></path> <path id="Path_257" class="st1" d="M48.1,6.1c0,0,0.1,0,0.1-0.1L48.1,6.1C48.1,6.1,48.1,6.1,48.1,6.1C48.2,6.1,48.1,6.1,48.1,6.1"></path> <path id="Path_258" class="st1" d="M47.1,6.3c-0.1,0.1-0.3,0.3,0,0.2c0,0,0,0,0,0C47.2,6.5,47.2,6.4,47.1,6.3"></path> <path id="Path_259" class="st1" d="M49.2,6.4c0.1,0,0.1-0.1,0.1-0.2c-0.2,0-0.4,0.1-0.6,0.2C48.9,6.3,49,6.3,49.2,6.4 C49.2,6.4,49.2,6.4,49.2,6.4"></path> <path id="Path_260" class="st1" d="M49.2,6.9c0.5,0.3,1.5,0.5,1.3,0.8c0.7,0.3-0.1-0.3-0.1-0.4l0.1,0C50.3,7.1,50,7,49.8,6.9 c0.1-0.4,0.8,0.5,1,0.2c0.5-0.6,0.9,0.8,1.4,1l-0.8,0.1l0.5,0.2c-0.4,0-0.6,0.3-1.1,0.2c0.6,0.4,1.4,1.1,1.8,1.3 c0,0.2,0,0.4-0.2,0.5c0.8,0.2,0.7,0.9,1.2,1.3c0.6,0.3-0.3-0.6,0.2-0.5c0.1,0.2,0.4,0.4,0.6,0.5c-0.3-0.3-0.7-0.7-0.9-1.1 c0.3,0.3,0.4,0,0.6,0l-0.4-0.5c0.2-0.2,0.6,0.5,0.9,0.6c-0.3,0.1-0.3,0.2-0.6,0.2c0.5,0.3,0.9,0.8,1.2,1.3 c0.1,0.3-0.3-0.1-0.4-0.1c0,0.2,0.2,0.3,0.3,0.4c0.5,0,1.1,0,1.6,0.1c0.6,0.4,1.3,0.8,2,1.1c-0.2-0.3-0.4-0.5-0.6-0.7 c0.2,0,0.4,0.2,0.7,0.5c-0.4-0.7-1-1.3-1.7-1.8c0.1,0.3,0.2,0.7,0.3,1c-0.7-0.2-0.2-0.8-0.9-1.2c0.2-0.2,0.4,0,0.4-0.3 c-0.4-0.1-0.7-0.5-1.1-0.7c0.1-0.4,0.5-0.3,1.1,0.3c0.2,0.6,1,0.9,1.1,1.5l0-0.4c0.4,0.5,0.7,0.8,1.1,1.2H59l0.4,0.1l-0.2-0.3 c0.3,0.1,0.7,0.4,0.9,0.6c-0.5-0.8-1-0.6-1.4-0.8c-0.5-0.7-0.3-1.2-0.8-1.5c0.1-0.1-0.1-0.6,0.2-0.4c0.3,0.3,0.4,0.7,0.6,0.6 c-0.3-0.4-0.1-0.3-0.6-0.9c-0.5,0-1-0.2-1.4-0.4c-0.5-0.3-0.9-0.7-1.2-1.2c0.4,0.3,1,0.5,1,0.3c-0.4,0-0.7-0.9-0.8-0.5 c-0.5-0.5-1.3-1.2-1.2-1.4c0.6,0.3,0.9,0.9,1.3,1.1c-0.1-0.1-0.2-0.3,0-0.3L56.5,9c-0.3-0.5-0.2-0.5-0.8-1c0,0.1,0.1,0.2,0,0.1 c-0.1-0.1-0.3-0.3-0.5-0.4l0.2-0.2c-0.5-0.2-1.2-1.2-2.2-1.6h0.1c-0.7-0.5-1-0.1-1.7-0.4c-0.1,0.1-0.3,0.1-0.5,0.1l-0.9,0 c-0.6,0.3-0.2,0.4,0,0.4c-0.4,0.1-0.7,0.2-1.1,0.4C49.4,6.7,49.4,6.8,49.2,6.9"></path> <path id="Path_261" class="st1" d="M58.1,14c0.3,0.2,0.6,0.3,1,0.4c-0.1-0.1-0.2-0.3-0.3-0.5C58.4,13.9,58,13.8,58.1,14"></path> <path id="Path_262" class="st1" d="M60.2,20.5L60.2,20.5L60.2,20.5L60.2,20.5c-0.1,0-0.2,0-0.2,0.1c0.1,0.1,0.2,0.1,0.3,0.3 c0.1,0,0.2-0.1,0.3-0.1C60.3,20.7,60.2,20.6,60.2,20.5"></path> <path id="Path_263" class="st1" d="M59,18.1L59,18.1C58.9,18.1,58.9,18.2,59,18.1L59,18.1"></path> <path id="Path_264" class="st1" d="M61.2,18.3L61.2,18.3C61.2,18.3,61.2,18.2,61.2,18.3C61.2,18.3,61.2,18.3,61.2,18.3"></path> <path id="Path_265" class="st1" d="M59.8,20.6c-0.2,0-0.3,0.1-0.5,0.1c0,0.1,0.1,0.2,0.1,0.3c0.1,0,0.1,0,0.1,0c0,0,0-0.1,0-0.1 l0,0.1l0.2-0.1c0-0.1-0.1-0.1-0.1-0.2C59.7,20.7,59.7,20.7,59.8,20.6"></path> <path id="Path_266" class="st1" d="M62.2,19.9c-0.2-0.1-0.3-0.3-0.5-0.4c-0.1,0-0.1-0.1-0.2-0.2c-0.1-0.1-0.1-0.1-0.2-0.2 c0.1,0.3,0.2,0.6,0.2,0.9l0.1-0.4c0.5,0.5-0.1,0.3,0.2,0.8c0.1,0,0.3-0.1,0.4-0.1c-0.1-0.2-0.2-0.3-0.3-0.5c0.2,0,0.3,0.2,0.5,0.5 c0,0,0.1,0,0.1,0C62.3,20.2,62.2,20.1,62.2,19.9"></path> <path id="Path_267" class="st1" d="M60.1,20.5l-0.3-0.7c0.1-0.1,0.3,0.2,0.3,0.2c-0.3-1.1-0.2-1.3-0.5-2.4c0,0.2-0.2,0.3-0.4,0.2 c-0.1,0-0.2-0.1-0.2-0.2c-0.3-0.3,0-0.4-0.2-0.7c0.1,0.1,0.4,0.2,0.4,0.5l0.3-0.1c0.7,0.7,0.8,0.1,1.3,1.3c0.1,0,0.2,0.1,0.3,0.2 h0l0,0c-0.1-0.6,0.2-0.8-0.2-1.4c0.3,0.5,0.3-0.1,0.5,0.6c0.2,0.3,0.1,0,0.1-0.2c-0.1-0.1-0.1-0.1-0.2-0.2c0,0-0.1,0-0.1-0.2 c-0.3-0.3-0.6-0.5-0.8-0.3c-0.3,0.2-1.2-0.8-1.3-0.4c0.3,0.2,0.6,0.3,0.9,0.4l-0.1,0c0,0.1,1,0.9,0.2,0.5c0.2-0.3-1.1-0.6-1.8-1 c0.3,0,0.2-0.2-0.1-0.5c0,0-0.1,0-0.1,0c0,0,0,0,0,0.1c-0.2,0-0.5,0.2-0.6,0.4c0.2,0,0.2,0.4,0.3,0.6c0.1-0.2,0.4,0.4,0.4-0.1 c0.2,0.2,0.3,0.4,0.4,0.7c0.3,0.1,0.5,0.2,0.7,0.4c0,0.1-0.1,0.1-0.3,0.1c0.1,0.1,0.3,0.3,0.3,0.1c0.2,0.6,0.1,1-0.2,1 c-0.1-0.2-0.1-0.5-0.2-0.5c0.1,0.3,0.3,0.7,0.4,1c0,0.3,0,0.6-0.2,0.7c0,0,0,0,0.1,0.1C59.5,20.5,59.8,20.5,60.1,20.5"></path> <path id="Path_268" class="st1" d="M35.4,43c0,0-0.1,0.1-0.1,0.1C35.4,43.1,35.5,43.1,35.4,43"></path> <path id="Path_269" class="st1" d="M46.6,3.4c0.1,0,0.2,0,0.3,0c0.1,0,0.1-0.1,0.2-0.1C47,3.3,46.8,3.3,46.6,3.4"></path> <path id="Path_270" class="st1" d="M47.1,3.4c0.2,0,0.3,0,0.5,0.1c-0.2,0-0.4,0.1-0.6,0.1l-0.2,0c-0.4,0.3-0.9,0.6-0.4,0.6 c0.5-0.3,1.3-0.6,1.7-0.8c-0.4,0-0.6-0.1-0.9-0.1C47.1,3.3,47.1,3.3,47.1,3.4"></path> <path id="Path_271" class="st1" d="M51.7,5.2C51.7,5.3,51.7,5.3,51.7,5.2C51.7,5.3,51.7,5.3,51.7,5.2"></path> <path id="Path_272" class="st1" d="M22.9,39.1c-0.1,0-0.2-0.1-0.3-0.1c0.7,1,1.8,2.1,2.5,3c0.6,0.5,1.3,1,2,1.2 c-0.2-0.1-0.8-0.6-0.3-0.5c0.3,0,0.6,0.3,0.9,0.5c-0.2,0.1,0.7,0.7,0,0.4c-0.1,0.5,1.5,0.8,1.2,1.2c0.1,0,0.1,0,0.2,0.1 c0.1-0.6,0.3-1.2,0.6-1.7c0,0,0,0,0,0c-0.3-0.8-0.7-1.8-1.1-2.7c0,0-0.1,0-0.2,0c0.2-0.1-0.4-0.6-0.6-0.9c0.2,0-0.3-0.8,0.3-0.4 c0.1,0.2,0,0.5,0.3,0.6c-0.1-0.4-0.2-0.8-0.5-1.1c0.1,0,0.2,0,0.3,0.1c-0.1-0.2-0.1-0.3-0.2-0.5c0,0,0.1,0,0.1,0 c-0.1-0.6-1.1-0.8-1.2-1.4c0,0,0,0.3-0.3,0.1c-0.4-0.3-0.2-0.5-0.2-0.7c-0.2,0-0.7-0.6-0.6-0.6c-0.3-0.2-0.1,0.5-0.6,0.3 c-0.4-0.1-0.5-0.6-0.7-0.9c-0.1-0.5,0.4,0.3,0.5,0.4l-0.8-1c-0.1-0.4,0.3,0,0.5,0.3c-0.1-0.5-0.4-0.8-0.8-1 c-0.1-0.2-0.2-0.5-0.3-0.8c0.3,0.2,0.6,0,0.9,0.4c0.3,0.7-0.4-0.1-0.2,0.5l0.2-0.1c0,0.3,0.3,0.4,0.5,0.6c0,0.2-0.1,0-0.2-0.1 c0.3,0.4,0.4,0.9,0.9,1c-0.2-0.7-1-1.5-0.9-1.9l-0.9-1.1c-0.1,0-0.1,0.6-0.4,0.3c0.2-0.4,0.2-0.8,0-1.2c-0.1,0.2-0.3-0.1-0.5-0.3 c-0.1,0.4-0.2,0.8-0.4,1.3c-0.2,0.7,0.2,0.8,0.4,0.2c-0.1,0.7,0.1,0.4-0.2,1.1c0-0.1-0.2,0.1-0.2,0.2c-0.2,0.7,0.2,0.2,0.1,0.6 c0,0.1-0.1,0-0.2,0.3l0.2,0.4c-0.3,0.4-0.3-0.2-0.3-0.6c-0.1,0.5-0.2,1-0.3,1.5c-0.1-0.1,0.1-0.4-0.1-0.4c-0.2,1.2,0.2,1,0.1,2 c0.3-0.4,0-0.8,0.2-1.3l0.4-0.2c-0.1,0.2-0.3,0.5-0.1,0.6l0.2-0.4c0,0.4-0.4,0.9-0.3,1.4l-0.4,0.6c-0.3-0.1,0.1-0.8-0.1-1.2 c-0.2,0.6-0.1-1.1-0.4-0.2c0,0.2-0.1,0.4-0.1,0.5c0.1,0.2,0.1,0.4,0.1,0.5c0,0,0,0,0,0l0,0C22.4,38.6,22.6,38.6,22.9,39.1"></path> <path id="Path_273" class="st1" d="M23.6,30.8c-0.1,0.1-0.1,0.2-0.1,0.3c0.1,0.1,0.2,0.2,0.3,0.3C23.9,31.3,23.7,31,23.6,30.8"></path> <path id="Path_274" class="st1" d="M20.1,30c0.3-0.9,0-1.2,0.6-2.3c0.6-0.5,0.9-1.6,1.4-2.3c-0.1-0.7-0.1-1.3-0.2-2l-0.1,0.3 c-0.1-0.3,0-0.6,0.1-1c0.3-0.7,0.2,0.6,0.4,0.2c0.2,0.3-0.1,0.8,0.1,0.9l0.4-0.4c-0.1-0.4,0.2-0.8,0.2-1l-0.2,0.3 c-0.2-0.1,0-0.3,0-0.4l-0.4,0.1c-0.1,0.4,0.2,0.7-0.1,1c0-0.7-0.3-0.6-0.2-1.5c0.1,0,0,0.2,0.1,0.3c0.1-0.3,0-0.7,0.2-1.1 c0,0.3,0,0.8,0.3,0.5L22.6,21c0.1-0.2,0.2-0.1,0.2-0.2c0.1-0.3-0.3,0-0.1-0.5c0.1-0.1,0.2-0.2,0.2-0.1c0.2-0.6,0-0.3,0.1-0.9 c-0.2,0.5-0.6,0.4-0.4-0.1c0.3-0.7,0.2-1.3,0.8-1.6l0-0.4c0.1,0.3,0.3-0.4,0.4-0.6c0.3,0.1-0.5,1-0.1,1.2c0.2-0.4,0.3-0.2,0.3,0 c0.2-0.5-0.2-0.3-0.3-0.6c0.1,0.1,0.4-0.8,0.5-0.4c0.2-0.4,0-0.6,0.2-0.8c0.1,0.1,0.2,0.2,0.3,0.3c-0.1-0.1,0.2-0.4,0.3-0.4 c-0.1,0-0.1-0.3-0.3,0.1c-0.1-0.2,0.5-0.8,0.3-0.9c0.2,0.1,0.5-0.6,0.9-0.9c-0.5-0.3-0.3,0.7-0.7,0.6c0.4-0.8,0.9-1.5,1.5-2.3 c0.6-0.5,0.2,0.2,0.4,0.2c-0.4,0.6-0.6,0.6-0.9,1.1c0.6-0.5,1-1.1,1.4-1.7c0.5-0.5,1-0.1,1.5-0.8c-0.2-0.1-0.2-0.1-0.5,0 c0.1-0.2,0.4-0.3,0.6-0.5c0-0.2-0.4,0.1-0.2-0.2c0.1-0.1,0.4-0.2,0.4-0.1l0,0.1c0.6-0.6,0.7,0,1.1-0.7c-0.1-0.1-0.2,0.1-0.3,0.2 c-0.2-0.1,0.1-0.5,0.3-0.7c0,0.1,0.3-0.1,0.5-0.2c0.2,0.1-0.5,0.4-0.5,0.5l0.6-0.3l-0.1,0L31.4,9c-0.4,0.3-0.3-0.1-0.2-0.3 c0.4-0.2,0.9-0.4,1-0.1c-0.1-0.2,0.5-0.5,0.9-0.7c-0.5,0.1-0.1-0.2,0-0.3l0.8,0C33.1,7.9,34,7.8,33.9,8c-0.1,0.3-0.6,0.3-0.9,0.5 c0.9,0.1,0.9-0.6,1.6-0.7c0,0.1,0,0.3-0.2,0.3c0.1,0,0.5-0.4,0.9-0.4c-0.1,0-0.4-0.2,0-0.4l0.6,0.1c0.7-0.1,0.2-0.4,0.7-0.6 l-0.4-0.1c0-0.3,0.8-0.2,0.7-0.4c-0.4,0-0.5,0.3-0.9,0.3c-0.2-0.2,0.4-0.3,0.6-0.5c0.4,0,0.8,0,1.3,0.1c0.1,0.4-0.9,0.7-0.6,1.2 c0.5-0.2,1-0.3,1.5-0.3c0.5-0.5,1.1-0.9,1.7-1.3c0.5-0.3-0.3,0.4,0.2,0.1C41.2,5,42.4,4.9,43.1,4c0.6-0.1,1.1-0.3,1.6-0.7 c-0.4,0.4-1.9,1.6-0.4,1.1c-0.6,0.2-0.5,0.9-1.6,1.2h0.5c0.7-0.4,0.8-0.8,1.7-1.1l-0.3,0.2c0.3-0.2,1.1-0.1,1.3-0.6 c0.1-0.4-0.7-0.1,0.3-0.7v0.3c0.2,0,0.4-0.1,0.5-0.2c-0.2-0.1-0.4-0.1-0.6-0.2c-0.3,0.2-0.7,0.3-1.1,0.3l0.3-0.1 c0-0.1,0.1-0.4-0.2-0.3c0.1-0.1,0.2-0.2,0.3-0.2C45.5,3,45.4,3,45.4,3h0.3l0.2-0.1c-0.2-0.1-0.4-0.1-0.6-0.1l0,0 c-1.1,0-1.7-0.7-2.5-0.3c0.2,0,0.5,0.3,0.4,0.4c-0.2-0.2-0.9-0.2-0.8-0.3l0.2,0c-0.4-0.1-0.8-0.1-1.2-0.1c-0.2,0.2,0,0.3-0.4,0.4 c-1-0.2,0.4-0.4-0.3-0.6c-0.3,0-0.7,0.2-1,0.2l-0.2-0.2c-1.5-0.1-2.5,0.6-4,0.9c-0.1-0.3,1-0.6,1.4-0.7c-0.5-0.2-1.1,0.3-1.8,0.3 c-0.6,0.1-1,0.5-0.8,0.6c-0.7,0.3-0.6,0-0.7-0.1c-0.1,0.4-1,0.6-1.6,0.9l-0.1-0.2c-0.3,0.2-0.5,0.4-0.8,0.6 c0.2-0.1,0.1,0.2,0.1,0.3L31.1,5c1,0,1.7-1.1,2.8-0.9c-0.2,0.2,0.1,0.1-0.1,0.3c-0.2,0.1-0.3,0.1-0.3,0c-0.1,0.2-0.4,0.4,0.1,0.3 c0.1,0.4-0.8,0.6-1.4,1c-0.6,0,0.4-0.5,0.5-0.8c-0.2,0.1-0.4,0.3-0.7,0.4l0-0.3c-0.8,0.5-0.1,0.3-0.2,0.7C31.7,6,31,5.9,30.8,6.1 L31,5.9c-0.7,0.2-0.7,0.5-1.2,0.8l-0.4,0c0.8-0.2,0.6-0.8,1.1-0.9c-1.2,0.3-0.1-0.6,0.2-1C30.4,5,30,5.1,29.5,5.1 c-0.5,0.7-1.4,0.7-1.8,1.5c-0.4,0.2,0.2-0.4-0.2-0.1c-0.7,0.4-1.3,1-1.8,1.6c-0.3,0.3-0.4,0.1-0.5,0.1c-1.7,1.3-1.7,2.4-3.1,4 l0.1-0.4c-0.3,0.4-0.6,0.7-0.5,1c-0.7,0.3-0.8,1.8-1.6,2.3c-0.5,0.9-0.2,1.1-0.4,1.8c-0.1,0-0.2-0.3-0.4,0 c-0.8,2.4-1.2,4.9-1.3,7.5c0,0-0.1-0.2-0.1-0.2c-0.2,1.8,0.5,3.6,0.6,5c0.1,0.3,0.4,1.1,0.5,0.8c0-0.2,0.1-0.4,0.3-0.4 c0,0,0.1,0,0.1,0c0.5,1.2-0.2,0.7,0.1,1.5c-0.3,0.4-0.4-0.5-0.7-0.4l0.5,1.1c0.2-0.6,0.3-1.2,0.5-1.7C20,29.6,20.1,30,20.1,30"></path> <path id="Path_275" class="st1" d="M22.5,24.3c-0.2,0-0.1,0.4-0.1,0.7c0,0,0.1,0,0.1-0.1C22.5,24.7,22.5,24.5,22.5,24.3"></path> <path id="Path_276" class="st1" d="M61.4,20.1C61.4,20.1,61.5,20.1,61.4,20.1l0-0.1L61.4,20.1L61.4,20.1z"></path> <path id="Path_277" class="st1" d="M24.8,16.3C24.8,16.3,24.8,16.3,24.8,16.3L24.8,16.3z"></path> <path id="Path_278" class="st2" d="M87.1,28.7c0,0.2,0,0.3,0,0.5L87.1,28.7z"></path> <path id="Path_279" class="st2" d="M86.2,23.9l0,0.2C86.3,24.1,86.3,23.9,86.2,23.9"></path> <path id="Path_280" class="st2" d="M78.4,8.7c0,0.1,0.1,0.1,0.2,0.1L78.4,8.7z"></path> <path id="Path_281" class="st2" d="M41.2,49.9c-0.1,0-0.1,0-0.2,0C41.1,49.9,41.2,49.9,41.2,49.9"></path> <path id="Path_282" class="st2" d="M29.1,38.4c0,0.1,0,0.2,0.1,0.4c-0.1,0.1-0.1,0.1-0.2,0.1c0,0.1,0,0.2-0.3,0.1 c0.1,0.3,0.3,0.6,0.4,0.8c0,0.2,0.1,0.4,0.2,0.6c0.2-0.1,0.3-0.2,0.2-0.4c0.6,0.2,1.3,0.3,1.9,0.4c0,0,0.1,0.1,0.1,0.1 c0.2-0.6,0.6-1.2,1.1-1.6c0-0.2,0-0.2,0.1-0.2c0-0.1,0-0.1,0.1-0.2c0-0.2,0-0.3-0.1-0.5c0.1,0.1,0.1,0.2,0.2,0.3 c0-0.1,0.1-0.1,0.1-0.2c-0.5-1-0.9-2-1.1-3c0.5,0.2,0.8,2.2,1.2,1.7c-0.2-0.6-0.4-0.6-0.5-1.1c0.2-0.5-0.2-1.5-0.3-2.4l-0.1,0.4 c-0.1-0.5-0.1-0.9-0.1-1.4l0.1,0.1L32,32c0-0.1,0-0.1,0-0.1C32,31.1,32,30.3,32,29.5c-0.2,0,0,0.8-0.1,1.2 c-0.1,0.1-0.2,0.9-0.3,0.5c-0.1-1-0.1-2-0.1-3l-0.1,0.4c-0.1-0.5,0-1,0.1-1.5c0.3-1,0.2,0.8,0.4,0.2c0.2,0.4-0.2,1.1,0.1,1.2 l0.4-0.6c-0.1-0.6,0.2-1.1,0.3-1.5l-0.2,0.4c-0.2-0.1,0-0.5,0.1-0.6l-0.4,0.2c-0.2,0.6,0.1,1-0.2,1.4c0-1.1-0.3-0.9-0.1-2.1 c0.1,0,0,0.3,0.1,0.4c0.2-0.4,0-0.9,0.3-1.6c0,0.4,0,1.1,0.3,0.6l-0.2-0.4c0.1-0.3,0.2-0.2,0.2-0.3c0.2-0.4-0.3,0,0-0.7 c0.1-0.1,0.2-0.3,0.2-0.2c0.2-0.8,0-0.4,0.2-1.2c-0.2,0.7-0.6,0.6-0.4-0.2c0.4-1,0.5-1.7,1.1-2.2l0-0.3l-0.2,0.1 c0-0.1,0.1-0.1,0.2-0.2l0-0.2c0.1,0.2,0.2,0,0.3-0.2c-0.2,0.1-0.4,0.3-0.4,0.2c-0.4,0.3-0.7,0.8-0.5,0.8c0.2-0.1,0.3-0.3,0.5-0.2 c-0.6,0.8-0.7,0.1-1.5,0.9L32,21c0-0.2-0.3,0.1-0.5,0.1c-0.3,0.4,0.3-0.1,0.2,0.2c-0.3,0.2-0.6,0.3-0.8,0.6 c0.3-0.2,0.3-0.1,0.6-0.1c-0.8,0.8-1.2,0.5-1.9,1.1c-0.5,0.7-1,1.4-1.6,2c-0.3,1.6-0.4,3.2-0.5,4.8c-0.1-0.1-0.1-0.2-0.1-0.3 c-0.2,2.4,0.5,4.8,0.7,6.8c0.1,0.4,0.4,1.4,0.6,1.1c-0.1-0.5,0.2-0.6,0.3-0.6C29.5,38.2,29,37.8,29.1,38.4 C29.1,38.4,29.1,38.4,29.1,38.4C29.1,38.4,29.1,38.4,29.1,38.4"></path> <path id="Path_283" class="st2" d="M87.3,27.6c-0.1-0.1-0.2-0.1-0.3-0.2c0,0,0,0,0,0c0.1,0.4,0.1,0.9,0.2,1.3 c0-0.1,0.3,0.5,0.2-0.3c0.2,0.3,0.3,0.6,0.3,0.9c0.1,0,0.2,0,0.3,0c0-0.1,0-0.2,0-0.2l-0.4-0.2l0.4,0.1c0-0.2,0-0.3,0.1-0.5 c-0.2-0.2-0.5-0.5-0.7-0.7C87.4,27.8,87.3,27.7,87.3,27.6"></path> <path id="Path_284" class="st2" d="M28.7,38.8c-0.1,0-0.1-0.1-0.2-0.1c0,0,0,0.1,0.1,0.1C28.6,38.8,28.7,38.8,28.7,38.8"></path> <path id="Path_285" class="st2" d="M77.3,52.7c-0.2,0,0.3-0.4,0.5-0.7c0,0,0,0.1,0,0.1c3-3.3,5.4-7,7.1-11.1l-0.1,0.8 c0.2-0.7,0.4-1.3,0.7-2l0,0.1c0.7-1,0.1-1.3,0.7-2.1V38c0.3-1.4,0.8-2.1,0.8-3.6c0.2-0.6,0.4-1.1,0.6-1.7c0-0.3,0-0.7-0.2-1l0,0.3 C87,32.4,87.1,31.4,87,31c-0.3,0.3-0.8,0.2-1.2,1.4c0,0.9-0.6,0.8-0.6,1.8c0.4,0.6-0.5,1.4-0.3,2.3c-0.2-0.5-0.4,1-0.5,0.2 c-0.3,0.3-0.2,1.9-0.7,2.5c0-0.1-0.1-0.1-0.1-0.3c-0.1,1-0.4,0.6-0.6,1.3l0.3,0.1c0,0.3-0.2,0.3-0.3,0.6c0.1-0.2,0.4-0.5,0.4-0.3 c0,0.3-0.1,0.7-0.2,1c-0.1,0-0.1-0.3,0-0.5c0,0-0.3,0.7-0.5,0.7c0.1-0.3,0.1-0.6,0.1-0.9c-0.5,0.9-0.1,0-0.5,0.4 c0.4,0-0.2,0.9-0.4,1.4c-0.1,0,0.1-0.4,0.1-0.5c-1,0.7-0.6,1.5-1.4,2.6c0-0.1,0-0.2,0.1-0.3c-0.2,0.6-0.8,0.8-0.8,1.2 c-0.4,0.5-0.4-0.1-0.9,0.6c0.5,0-0.7,0.8-0.4,1.1L78,47.7c-0.2,0.6,0.6,0.3-0.2,1.3c-0.9,0.7-0.4-0.5-1-0.2l0,0.3l-0.5,0.3l0-0.1 c-0.2,0.3-0.7,0.6-0.7,0.6c0-0.1,0.2-0.3,0.2-0.4c-0.2,0.5-1.9,1-2,1.8c-0.3,0.1-0.8,0.5-0.9,0.3c-0.1,0.4-1,0.7-1.4,1 c0,0,0,0.1-0.1,0.1L77.3,52.7l0.2-0.1C77.5,52.6,77.4,52.6,77.3,52.7"></path> <path id="Path_286" class="st2" d="M34.7,18.9L34.7,18.9L34.7,18.9C34.7,19,34.7,19,34.7,18.9c0.1-0.1,0.1-0.3,0.2-0.4 c-0.1,0-0.2,0.1-0.3,0.1c-0.2,0.1-0.3,0.4-0.1,0.4C34.5,18.9,34.6,18.8,34.7,18.9"></path> <path id="Path_287" class="st2" d="M29,23.8c-0.3,0,0.3-0.8-0.5-0.2c-0.1,0.2-0.3,0.4-0.4,0.6c0,0.2-0.1,0.4-0.1,0.7 C28.3,24.5,28.6,24.2,29,23.8"></path> <path id="Path_288" class="st2" d="M37.9,14.1c-0.1,0.1-0.2,0.2-0.3,0.4c0.1,0,0.1-0.1,0.2-0.1c0,0,0-0.1,0.1-0.1 C37.9,14.2,37.9,14.1,37.9,14.1"></path> <path id="Path_289" class="st2" d="M28.7,40c0.1,0.1,0.1,0.3,0.2,0.4h0C28.8,40.4,28.7,40.2,28.7,40"></path> <path id="Path_290" class="st2" d="M34,19.6L34,19.6c0.1-0.1,0.2-0.2,0.2-0.2L34,19.6z"></path> <path id="Path_291" class="st2" d="M33.9,20.4c0.3-0.6,0.3-0.3,0.3,0c0.3-0.7-0.2-0.4-0.2-0.7l-0.1,0.1 C33.8,20,33.7,20.3,33.9,20.4"></path> <path id="Path_292" class="st2" d="M47.1,3.4C47,3.4,47,3.4,47.1,3.4c-0.2,0.1-0.3,0.1-0.3,0.2c0,0,0,0,0.1,0L47.1,3.4"></path> <path id="Path_293" class="st2" d="M48.4,6.4c-0.2,0.2-0.4,0.4-0.6,0.4c0,0,0.1,0,0.1,0.1c0.3-0.2,0.5-0.4,0.8-0.6 c-0.2,0-0.4,0-0.6,0c0.1,0,0-0.1,0-0.2C47.5,6.4,48.6,6.2,48.4,6.4"></path> <path id="Path_294" class="st2" d="M37.9,7.9c-0.4,0.4-0.4,0.2-0.7,0.2c-2.2,1.8-2.4,3-4.3,5.3l0.1-0.5c-0.4,0.5-0.8,0.9-0.7,1.3 c-0.5,0.2-0.8,1.1-1.2,1.9c0.6-0.3,1.2-0.7,1.7-1.2c0.5-0.1,1.1-0.3,1.5-0.6c-0.3,0.4-1.8,1.5-0.3,1.1c-0.6,0.1-0.5,0.8-1.5,1.1 H33c0.7-0.4,0.8-0.7,1.6-1l-0.3,0.2c0.3-0.2,1.1-0.1,1.2-0.6c0.1-0.4-0.7-0.1,0.3-0.7v0.3c0.3-0.1,0.7-0.2,1-0.5 c-0.3,0.3-1.5,0.9-0.8,0.9c0.3-0.1,0.6-0.3,0.9-0.4c0.3-0.4,0.7-0.9,1-1.3c-1.1,0.1-2.1,1.1-3.1,1.1l0.3-0.1 c0-0.1,0.1-0.4-0.2-0.3c0.3-0.2,0.6-0.5,1-0.7l0.1,0.2c0.7-0.3,1.8-0.6,2-1c0.1,0,0,0.2,0.4,0.2c0.3-0.3,0.3-0.2,0.3-0.1 c0,0,0.1,0,0.2-0.1c-0.1-0.1,0.2-0.4,0.7-0.6c0.7-0.6,1.1-0.3,1.9-1.1C41.3,11,41,11,40.9,11.1c0.2-0.3,0.5-0.5,0.8-0.7 c0.1-0.2-0.5,0.2-0.2-0.2c0.2-0.1,0.5-0.3,0.5-0.2L42,10.2c0.8-0.8,0.9-0.1,1.6-1c-0.1,0-0.2,0.2-0.5,0.3c-0.2,0,0.2-0.5,0.5-0.8 c0,0.2,0.4-0.2,0.7-0.3c0.3,0.1-0.7,0.5-0.7,0.7c0.3-0.1,0.5-0.3,0.8-0.4l-0.2,0.1L44.9,8c-0.6,0.4-0.4-0.1-0.2-0.2 C45.3,7.4,46,7.1,46,7.4c0-0.1,0.1-0.2,0.2-0.3c-0.5-0.1-0.9-0.3-1.3-0.6c-0.9-0.1,0.4,0.4-0.4,0.3c0.1-0.3-0.3-0.6-1.1-0.6 l0.7-0.1c0,0,0,0.1,0,0.1c0.4,0.1,0.6,0,0.7-0.2c-0.4,0-0.7,0-1.1-0.1c0-0.1,0.2-0.1,0.2-0.2c-0.4-0.1-0.8-0.2-1,0l0.1,0.1l-0.5,0 c0.1,0.2,0.3,0.5-0.2,0.5c-0.7,0-1.5,0-2.2,0.2l0.3-0.1c-0.2-0.1-0.4-0.1-0.6,0C40,6.6,40,7,39.4,7.1c-0.2-0.1-0.4-0.1-0.7,0 C38.4,7.4,38.2,7.6,37.9,7.9"></path> <path id="Path_295" class="st2" d="M49.2,6.4L49.2,6.4c-0.1,0.1-0.2,0.1-0.3,0.1C49,6.5,49.1,6.4,49.2,6.4"></path> <path id="Path_296" class="st2" d="M48,6.1c-0.4,0-0.7,0-1.1,0.1c0.1,0,0.1,0.1,0.1,0.2c0.1-0.1,0.1-0.1,0.1-0.1L48,6.1L48,6.1z"></path> <path id="Path_297" class="st2" d="M86.7,22.7L86.7,22.7C86.7,22.8,86.7,22.7,86.7,22.7"></path> <path id="Path_298" class="st2" d="M34.1,19.3L34.1,19.3c-0.1,0.1-0.1,0.2-0.1,0.2C34.1,19.4,34.2,19.3,34.1,19.3"></path> <path id="Path_299" class="st2" d="M47.2,3.3L47.2,3.3C47.2,3.2,47.2,3.3,47.2,3.3L47.2,3.3"></path> <path id="Path_300" class="st2" d="M87.7,25.7l0,0.2c0,0,0.1,0,0.1,0C87.7,25.8,87.7,25.7,87.7,25.7"></path> <path id="Path_301" class="st2" d="M38.3,13.6c-0.1,0.1-0.1,0.1-0.2,0.2c0,0,0,0,0.1,0C38.3,13.7,38.3,13.7,38.3,13.6"></path> <path id="Path_302" class="st2" d="M47.1,6.5C47.1,6.5,47.1,6.5,47.1,6.5c0.1,0,0.1,0,0.2,0C47.2,6.5,47.1,6.5,47.1,6.5"></path> <path id="Path_303" class="st2" d="M38.5,47.8c-1.3-0.1-2.8-0.4-3.3-1c1,0.1,0.3,0.3,1.2,0.4l0.1-0.3c-0.4,0.2-0.6-0.2-0.8-0.3 c-0.4,0.2-1.2-0.2-1.7,0c0,0,0-0.1,0.1-0.1l-0.4,0l0-0.1c0,0,0,0.1,0,0.1c0,0,0-0.1,0-0.1c-0.1,0-0.2,0-0.2-0.1 c0,0.1-0.1,0.1-0.1,0.2c-0.1,0-0.1-0.1-0.1-0.3l-0.2,0c-0.2,0.2-0.4,0.5-0.6,0.8c0.3,0.5,0.5,1,0.4,1.1c0.5,0.6,0.7,0.7,1.2,1.3 c-0.1,0-0.2-0.1-0.3-0.1c0.9,1.2,1.8,2.3,2.9,3.4h8c0,0,0,0,0,0c-0.4-0.1-1.8-0.6-2.5-0.9c0.1,0.4-0.2,0.6-0.9,0.3 c0.2-0.1-0.6-0.7-0.9-1.2c0.3,0-0.5-1,0.3-0.4c0.2,0.3,0.1,0.5,0.5,0.7c-0.2-0.5-0.5-1-0.8-1.4c0.1,0,0.4,0.1,0.7,0.4 c-0.2-0.1-0.1,0-0.2,0.1c1.1,0.6,0.1-0.5,0.4-0.5c-0.3-0.2-0.7-0.7-0.6-0.3c-0.2-0.7-1.3-1.1-1.6-1.7c0,0-0.1,0-0.1,0 C38.6,47.8,38.6,47.8,38.5,47.8"></path> <path id="Path_304" class="st2" d="M86,27.6c0.4,0.3,0.9,0.7,0,0.2C86,27.8,86,27.7,86,27.6c-0.2,0.2-0.4-0.3-0.6-0.2 c0.1,0.5,0.3,1.2,0.5,0.8l0,1.1c-0.1,0-0.1-0.3-0.1-0.5c0,0.5,0.1,1,0.3,1.4c0-0.2-0.1-0.3,0-0.5c0.1,0.4,0.2,0.9,0.4,1.3 c-0.2-0.6,0.2-0.7-0.1-1.4c0.2,0.1,0.3,0.3,0.2,0.5c0.2-0.6,0.1-1.1,0.3-1.4c-0.1,0.3,0,0.6,0.2,0.9c0-0.1,0-0.3,0-0.4l-0.1-0.1 l0.1,0c0-0.4-0.1-0.8-0.2-1.1c0.2-0.1,0.1-0.4,0.1-0.7c-0.2-0.1-0.4-0.1-0.5,0c-0.1,0-0.2,0-0.2,0c0,0.1,0,0.1,0,0.2 C86,27.5,86,27.5,86,27.6"></path> <path id="Path_305" class="st2" d="M51.7,5.3c0,0.1-0.1,0.1-0.2,0.1c0,0,0.1,0,0.1,0.1C51.6,5.4,51.7,5.4,51.7,5.3"></path> <path id="Path_306" class="st2" d="M46.6,2.9c0,0.2-0.6,0-0.8,0.1l0,0h-0.2c0,0-0.1,0.1-0.1,0.1c0.2,0.1,0.4,0.2,0.6,0.3 c0.8-0.5,1.7-0.9,2.7-0.9c-0.3,0.2,0.2,0.1-0.2,0.3c-0.3,0.1-0.4,0.1-0.4,0c-0.1,0.2-0.5,0.5,0.1,0.3c0,0.1-0.1,0.2-0.2,0.3h0.1 c0.5,0.4,1.1,0.7,1.7,1c-0.3-0.2-0.1-0.4,0.3-0.1c0.5,0.7-1-0.2-0.9,0.2c0.4,0.2,1.2,0.6,1.3,0.3c-0.3-0.3,0.6,0,0.2-0.4 c0.4,0.3,0.5,0.6,1,0.7c0,0,0,0.1,0,0.1c0-0.1,0.1-0.2,0.4-0.3l-0.6-0.1c0-0.3,1.1-0.2,1-0.5c-0.5,0.1-0.7,0.4-1.3,0.4 c-0.3-0.2,0.6-0.3,0.9-0.5c0.6-0.1,1.2-0.1,1.7,0C54,4.7,52.7,5,53,5.5c1-0.3,2.1-0.5,3.1-0.4c0.9-0.2,0.8-0.5,0.7-0.7 c0.3,0,0.6,0,0.8,0l-0.4,0.1c1-0.2,2-0.2,3-0.2c0.7,0,0.4-0.3,0.3-0.5l0.8,0.1l-0.1-0.1c0.2-0.2,0.9-0.1,1.4,0 C62.6,4,62.3,4,62.3,4c0.5,0.2,1,0.3,1.5,0.2c0,0.1-0.4,0.3-0.9,0.1c-0.1,0,0-0.1-0.1-0.1h-0.9c1,0,1.6,0.4,1.5,0.7 c1,0.1-0.8-0.5,0.5-0.3c1.4,0.9,3,0.7,3.6,1.7c0.9,0.1,1.9,0.3,2.7,0.7c0.1-0.2,0.7,0.3,0.8,0c-0.9-0.8-2.1-0.6-2.7-1.3 c-0.5-0.1-0.4,0.2-0.7,0.2c-0.4-0.2-0.8-0.3-0.8-0.5c1,0.2,0.4-0.4,1.7,0c-0.1-0.2-1.1-0.6-1.6-0.8c0.2-0.1,0.1-0.2-0.2-0.4 c0.5,0,1.1,0,1.6,0.1c-0.2,0,0.1,0.2-0.1,0.2c0.5,0.1,1,0.2,1.5,0.3C70,5.3,70,5.5,69.8,5.5c0.7,0.4,2,0.8,1.8,1.1 c0.9,0.5-0.2-0.3-0.2-0.5l0.1,0c-0.3-0.2-0.7-0.3-1-0.5c0.1-0.4,1.1,0.6,1.4,0.4c0.5-0.6,1.2,1,1.9,1.3l-1,0l0.7,0.3 c-0.5-0.1-0.7,0.2-1.3,0.1c0.9,0.5,2,1.5,2.5,1.8c0.1,0.3,0.1,0.5-0.1,0.6c1,0.4,1.1,1.1,1.7,1.7c0.8,0.5-0.5-0.8,0.2-0.6 c0.1,0.3,0.6,0.5,0.8,0.7c-0.5-0.4-0.9-0.9-1.3-1.5c0.4,0.3,0.5,0.1,0.7,0.1L75.9,10c0.3-0.2,0.8,0.7,1.2,0.8 c-0.4,0-0.3,0.1-0.7,0.2c0.7,0.5,1.3,1.1,1.7,1.8c0.1,0.4-0.3-0.1-0.5-0.2c0,0.2,0.6,0.5,0.5,0.7c-0.2,0-0.3-0.3-0.5-0.5 c0.4,0.5,0.9,1.1,1.3,1.7c-0.1,0.1-0.4-0.3-0.6-0.6c0.3,0.6,0.8,1,1.4,1.3c0.3,0.7,0.6,1.4,0.4,1.3c0.2,0.2,0.2,0,0.3-0.1 c0.5,0.8,0.9,0.7,1.2,1.2l0-0.5c0.3,0.9,0.4,0,0.7,0.8c-0.3,0-0.5,0.2-0.6,0.4c0.3,0,0.3,0.6,0.5,0.9c0.1-0.3,0.5,0.6,0.5,0 c0.5,0.7,0.4,1.2,0.9,1.7c-0.1-0.4,0.5,0.6,0.5,0.2c0.3,0.8,0.2,1.4-0.1,1.3c-0.1-0.3-0.1-0.7-0.3-0.6c0.2,0.5,0.4,0.9,0.5,1.4 c0,0.1,0,0.2,0,0.3c0.1,0,0.1,0.1,0.2,0.1c0.4,0.4,0.2,0.3-0.2,0.2c0,0.1,0,0.2-0.1,0.3c0.2,0.1,0.4,0.2,0.6,0.2 c0.1-0.1,0.1,0,0.2,0.1c0.1,0,0.2,0,0.3,0c0-0.1-0.1-0.1-0.1-0.2l0,0.1c-0.1-0.4-0.3-0.8-0.5-1.1c0.1-0.1,0.3,0.2,0.3,0.2 c-0.4-1.4-0.3-1.7-0.8-3.3c0,0.1-0.3,0.6-0.6-0.1c-0.3-0.4-0.1-0.6-0.3-1c0.2,0.2,0.5,0.3,0.5,0.7l0.3-0.1c0.8,1,0.9,0.3,1.5,1.8 c0.2,0,0.7,1.2,0.9,2.1l0.1-0.5c0.6,0.8-0.2,0.3,0.4,1.4c0,0.1-0.1,0.2-0.1,0.3c0.2,0.1,0.3,0.2,0.5,0.2c0,0.2,0.1,0.4-0.3,0.3 c0.3,0.1,0.6,0.3,0.9,0.3c-0.2-0.8-0.5-1.5-1-2.2c0.3,0,0.5,0.8,0.8,1.3c0.2-0.6-0.3-0.3-0.4-1.2c0-0.1,0.1-0.2,0.2-0.1l-0.5-0.6 c0-0.2,0-0.1,0.1-0.1c-0.6-1-0.3,0.2-1-1.4c0.2,1,0.5,0.7,0.7,1.6c-0.1,0.5-0.6-0.8-0.8-1c-0.2-0.8,0.2-1-0.4-1.9 c0.4,0.6,0.3-0.1,0.7,0.9c0.3,0.5,0-0.3,0.1-0.5c-0.2-0.2-0.2,0.3-0.5-0.4l0.1,0c-0.2-0.4-0.5-0.7-0.8-1c-0.3-1.1-1.5-2.2-1.6-3 L83,16.2c-0.4-0.6-0.8-1.3-1.3-1.8c0.2,0,0.5,0.4,0.8,0.8c-0.6-1-1.3-1.8-2.3-2.5c0.2,0.4,0.3,0.8,0.5,1.2 c-0.9-0.4-0.4-0.9-1.2-1.6c0.2-0.2,0.4,0.1,0.5-0.3c-0.4-0.2-0.9-0.8-1.4-1c0-0.4,0.5-0.2,1.3,0.6c0.4,0.8,1.3,1.3,1.5,2l-0.1-0.5 c0.6,0.6,0.9,1.1,1.4,1.6h-0.1l0.5,0.1l-0.2-0.3c0.4,0.2,0.8,0.6,1.1,0.9c-0.7-1.1-1.2-0.9-1.7-1.2c-0.6-0.9-0.5-1.6-1.1-2 c0.1-0.1-0.2-0.7,0.2-0.4c0.5,0.4,0.6,0.9,0.8,0.8c-0.3-0.4-0.5-0.8-0.8-1.2c-0.6-0.1-1.2-0.4-1.6-0.7c-0.6-0.5-1.2-1-1.7-1.6 c0.6,0.5,1.3,0.8,1.3,0.6c-0.5-0.1-0.9-1.2-1-0.7c-0.6-0.6-1.8-1.5-1.6-1.8c0.6,0.5,1.2,1,1.8,1.5c-0.1-0.1-0.2-0.3-0.1-0.3 l0.7,0.7c-0.5-0.7-0.3-0.7-1.1-1.3c0,0.1,0.1,0.2,0,0.1c-0.2-0.2-0.4-0.4-0.6-0.5l0.2-0.3C76.9,6.8,76,5.6,74.6,5l0.1,0 c-0.9-0.7-1.3-0.2-2.4-0.7c0.4,0,0.3-0.1,0.3-0.3c-0.6-0.2-0.8-0.5-1.3-0.9c0.6,0.5-0.6,0.1-0.2,0.4c-0.1,0.3-1.2-0.2-1.8-0.5 c-0.2-0.5,1.9,0.6,1.2-0.2c-0.6-0.3-0.8-0.2-0.4,0.1c-0.8-0.4-1.6-0.8-2.3-1.2c-1,0-1.3-0.3-2-0.1c0.5,0.1,0.6-0.1,1.2,0.2 l-0.7,0.1c-0.9-0.2-1.5-0.6-2.1-0.8l0.7,0l0,0c0.3-0.1,1.1,0.2,1.1,0c-0.6,0.1-1.1-0.2-1.9-0.3l0,0c-1.4-0.1-2.3-0.8-3.3-0.4 c0.3,0,0.7,0.3,0.6,0.4c-0.3-0.2-1.2-0.2-1.1-0.4l0.3,0c-0.5-0.1-1-0.1-1.6-0.1c-0.2,0.2,0,0.3-0.6,0.4C57,0.6,59,0.3,58,0.1 c-0.4,0.1-0.9,0.2-1.3,0.2l-0.3-0.2c-2-0.1-3.4,0.7-5.4,1.1c-0.1-0.3,1.3-0.7,1.8-0.8c-0.7-0.1-1.5,0.4-2.4,0.4 c-0.8,0.1-1.3,0.6-1.1,0.7c-0.9,0.4-0.7,0-0.9,0c-0.2,0.4-1.4,0.7-2.1,1.1l-0.1-0.2c-0.2,0.1-0.3,0.2-0.4,0.3 C46.1,2.9,46.4,3,46.6,2.9"></path> <path id="Path_307" class="st2" d="M87.7,30.3c0.1,0.2,0.1-0.3,0.1-0.5c0.1,0.1,0.4,0.7,0.5,0.3l-0.5-0.4 C87.7,29.9,87.7,30.1,87.7,30.3"></path> <path id="Path_308" class="st2" d="M29.1,38.4C29.1,38.4,29.1,38.4,29.1,38.4L29.1,38.4C29.1,38.4,29.1,38.4,29.1,38.4"></path> <path id="Path_309" class="st2" d="M33.6,45.5c0,0.5,0.5,0.1,0.1,0.9l0,0.1l0.4,0c-0.1,0-0.1,0-0.1,0.1c0.5-0.2,1.3,0.1,1.7,0 c0.2,0.1,0.4,0.5,0.8,0.3l-0.1,0.3c-0.9-0.1-0.3-0.3-1.2-0.4c0.5,0.6,2,0.9,3.3,1c0,0-0.1,0-0.1-0.1c-0.5-0.5-0.3-0.6-0.4-0.9 c-0.2-0.1-0.9-0.9-0.8-0.8c-0.4-0.3,0,0.7-0.6,0.2c-0.5-0.2-0.6-0.9-1-1.3c-0.2-0.7,0.5,0.5,0.7,0.6c-0.4-0.5-0.7-1-1.1-1.5 c-0.1-0.5,0.4,0.1,0.6,0.5c-0.2-0.6-0.5-1-0.9-1.4c-0.2,0.4-0.1,0.7-0.5,1.4C34.4,43.9,33.7,45.5,33.6,45.5"></path> <path id="Path_310" class="st2" d="M33.5,46.3c0.1,0,0.2,0,0.2,0.1C33.7,46.1,33.7,45.8,33.5,46.3"></path> <path id="Path_311" class="st2" d="M45.2,3.2c0.3-0.1,0.1,0.2,0.2,0.3l-0.3,0.1c0.4,0,0.7-0.1,1.1-0.3c-0.2-0.1-0.4-0.2-0.6-0.3 C45.4,3.1,45.3,3.2,45.2,3.2"></path> <path id="Path_312" class="st2" d="M47.2,3.3c-0.1,0-0.1,0.1-0.2,0.1C47,3.4,47,3.4,47.2,3.3C47.1,3.3,47.1,3.3,47.2,3.3L47.2,3.3 "></path> <path id="Path_313" class="st2" d="M38.7,47.8c0,0,0.1,0,0.1,0c0-0.1-0.1-0.1-0.1-0.2C38.7,47.6,38.7,47.7,38.7,47.8"></path> <path id="Path_314" class="st2" d="M33.9,44.4c-0.3,0.4-0.7,1.7-0.7,1.2L33,46.2c0,0,0,0,0,0c0.1,0,0.2,0,0.2,0 C33.3,45.6,34.1,44.3,33.9,44.4"></path> <path id="Path_315" class="st2" d="M39.4,7.1C40,7,40,6.6,39.9,6.4c0.2-0.1,0.4,0,0.6,0l-0.3,0.1c0.7-0.2,1.4-0.2,2.2-0.2 c0.5,0,0.3-0.3,0.2-0.5l0.5,0L43,5.8c0.2-0.2,0.6-0.1,1,0c0,0.1-0.2,0.1-0.2,0.2c0.3,0.1,0.7,0.2,1.1,0.1c0,0.1-0.3,0.3-0.7,0.2 c0,0,0-0.1,0-0.1l-0.7,0.1c0.8,0,1.1,0.3,1.1,0.6c0.7,0-0.5-0.4,0.4-0.3c0.4,0.3,0.8,0.5,1.3,0.6c0.3-0.2,0.6-0.4,1-0.6 c0,0,0,0,0,0c-0.3,0.1-0.1-0.1,0-0.2c0-0.1-0.1-0.1-0.1-0.2C47.3,6.1,47.7,6,48,6.1l0.2,0c-0.1,0-0.1,0-0.1,0.1 c0,0.1,0.1,0.1,0,0.2c0.2,0,0.4,0,0.6,0c0.2-0.1,0.4-0.2,0.6-0.2c0,0.1,0,0.2-0.1,0.2l0,0c0.3-0.2,0.7-0.4,1.1-0.4 c-0.2,0-0.6-0.1,0-0.4l0.9,0c0.2,0,0.3-0.1,0.5-0.1c0,0-0.1,0-0.1-0.1c0.1,0,0.2,0,0.2-0.1c0,0,0-0.1,0-0.1c0,0,0-0.1,0-0.1 c-0.5-0.1-0.6-0.4-0.9-0.7c0.4,0.4-0.5,0.1-0.2,0.4c-0.1,0.3-0.9-0.1-1.3-0.3c-0.1-0.5,1.4,0.4,0.9-0.2c-0.4-0.2-0.6-0.1-0.3,0.1 c-0.6-0.3-1.2-0.6-1.7-1H48c-0.4,0.3-1.1,0.5-1.7,0.8c-0.5,0,0-0.3,0.4-0.6c0,0,0,0-0.1,0c-0.2,0.1-0.3,0.2-0.5,0.2V3.4 c-1.1,0.6-0.2,0.4-0.3,0.7c-0.1,0.5-1,0.4-1.3,0.6l0.3-0.2c-0.9,0.3-0.9,0.7-1.7,1.1h-0.5c1.1-0.3,0.9-1,1.6-1.2 c-1.5,0.5,0-0.7,0.4-1.1c-0.5,0.3-1,0.5-1.6,0.7c-0.7,0.8-1.9,1-2.5,1.9c-0.5,0.3,0.3-0.4-0.2-0.1c-0.6,0.4-1.1,0.8-1.7,1.3 C38.9,7,39.2,7.1,39.4,7.1"></path> <path id="Path_316" class="st2" d="M31.4,40.4c-0.6-0.1-1.3-0.2-1.9-0.4c0,0.2-0.1,0.4-0.2,0.4c0.3,0.7,0.5,1.3,0.7,2 c-0.1-0.4-0.3,0-0.4-0.6c0.1,0.1,0.1,0,0.1,0.1c-0.2-0.5-0.4-1-0.7-1.4h0c0.4,0.9,0.8,1.9,1.1,2.7c0.6-0.8,1.1-1.7,1.5-2.6 C31.4,40.5,31.4,40.5,31.4,40.4"></path> <path id="Path_317" class="st2" d="M45.9,2.9L45.9,2.9c0.2,0,0.8,0.2,0.8,0c-0.3,0.1-0.6,0-0.8-0.1l-0.2,0.1L45.9,2.9L45.9,2.9z"></path> <path id="Path_318" class="st2" d="M35.2,43.3C35.2,43.3,35.2,43.3,35.2,43.3L35.2,43.3C35.3,43.3,35.3,43.3,35.2,43.3 C35.2,43.3,35.2,43.3,35.2,43.3"></path> <path id="Path_319" class="st2" d="M35.4,42.7L35.4,42.7L35.4,42.7"></path> <path id="Path_320" class="st2" d="M28.6,38.8c0,0.1,0,0.1,0.1,0.2c0.3,0.1,0.3,0,0.3-0.1c-0.2-0.1-0.3-0.6-0.5-0.7l0,0 c0,0-0.1,0-0.1,0c0.1,0.2,0.1,0.3,0.2,0.5c0.1,0,0.1,0.1,0.2,0.1C28.7,38.8,28.6,38.8,28.6,38.8"></path> <path id="Path_321" class="st2" d="M35.3,43.1c-0.1,0.1-0.1,0.2-0.1,0.2h0l0.2,0c0.1,0.4,0.4,0.6,0.6,0.9c0.1,0.2-0.1,0-0.2-0.1 c0.4,0.6,0.6,1.2,1.2,1.5c-0.4-0.9-1.5-2.1-1.4-2.7c0-0.1-0.1-0.1-0.1-0.2c0,0.1-0.1,0.1-0.1,0.2C35.5,43.1,35.4,43.1,35.3,43.1"></path> <path id="Path_322" class="st2" d="M47.1,7c0.3,0,0.6-0.1,0.8-0.2c0,0-0.1,0-0.1-0.1C47.5,6.9,47.3,7,47.1,7"></path> <path id="Path_323" class="st2" d="M86.2,23.9l0-0.1L86.2,23.9C86.2,23.8,86.2,23.8,86.2,23.9"></path> <path id="Path_324" class="st2" d="M32.1,31.9c0,0.1,0,0.1,0.1,0.1C32.1,32,32.1,31.9,32.1,31.9"></path> <path id="Path_325" class="st3" d="M74.9,39l0-0.4C74.9,38.7,74.9,38.9,74.9,39"></path> <path id="Path_326" class="st3" d="M74,33.9l0,0.2C74.1,34.2,74.1,34,74,33.9"></path> <path id="Path_327" class="st3" d="M66.8,19.5l-0.2-0.1C66.7,19.5,66.7,19.5,66.8,19.5"></path> <path id="Path_328" class="st3" d="M34,19.6L34,19.6L34,19.6C34.1,19.6,34.1,19.6,34,19.6"></path> <path id="Path_329" class="st3" d="M74.7,36.8C74.7,36.8,74.6,36.8,74.7,36.8C74.6,36.8,74.7,36.8,74.7,36.8"></path> <path id="Path_330" class="st3" d="M22.8,30.4c0.2,1-0.3,0,0,1c0.1,0.3,0.2-0.3,0.4,0.3c0,0,0.2-0.3,0-0.4 c0.1-0.1,0.1-0.1,0.2,0.1l0.1-0.2C23.3,30.8,23.1,30.6,22.8,30.4"></path> <path id="Path_331" class="st3" d="M54.9,12.7c0.1,0,0.1,0,0.2,0c0,0,0-0.1,0-0.1C55,12.6,54.9,12.7,54.9,12.7 C54.9,12.7,54.9,12.7,54.9,12.7"></path> <path id="Path_332" class="st3" d="M34.1,19.5C34.1,19.6,34.1,19.6,34.1,19.5L34.1,19.5L34.1,19.5z"></path> <path id="Path_333" class="st3" d="M34,19.5c-0.1,0.1-0.3,0.2-0.4,0.3v0.1l0.3-0.2L34,19.5"></path> <path id="Path_334" class="st3" d="M19.3,49.6c0-0.1-0.1-0.2-0.1-0.3C19.2,49.5,19.2,49.6,19.3,49.6"></path> <path id="Path_335" class="st3" d="M24,30.4l0-0.5c0.1,0.4,0.4-0.5,0.5-0.8c0.3,0-0.6,1.3-0.2,1.5c0.3-0.6,0.3-0.2,0.3,0 c0.3-0.6-0.2-0.4-0.2-0.7c0.1,0,0.5-1.1,0.6-0.6c0.3-0.5,0.1-0.7,0.4-1.1c0.1,0.1,0.2,0.2,0.3,0.3c-0.1-0.1,0.3-0.5,0.4-0.6 C26,28,26,27.7,25.8,28.1c-0.1-0.2,0.6-1,0.4-1.1c0.2,0.1,0.7-0.9,1.1-1.2c-0.5-0.3-0.4,0.9-0.9,0.8c0.5-0.8,1-1.6,1.6-2.4 c0.3-1.5,0.7-3,1.2-4.4c0.2-0.5,0.3-0.1,0.4-0.1c0.3-1-0.1-1.2,0.6-2.4c0.4-0.3,0.7-0.8,0.8-1.2c-0.3,0.2-0.5,0.4-0.6,0.6 c-0.4,0.3,0.2-0.4-0.2-0.1c-0.9,0.6-1.7,1.3-2.3,2c-0.4,0.4-0.4,0.2-0.6,0.2c-2.1,1.7-2.3,2.9-4.1,5.1l0.1-0.4 c-0.4,0.5-0.7,0.8-0.7,1.2c-0.1,0-0.1,0.1-0.2,0.1c-0.1,0.4,0,0.7,0.1,1.1c0,0,0,0,0,0.1l0.1,0.3l-0.1-0.1c-0.1,0.3,0,0.7,0.1,1 l0.1-0.3c0,0.6,0.5,1.3,0.2,1.7c0,0.4,0.2,0.3,0.4,0.8c-0.5,0.4-0.7-1-1.1-1.1c0.3,0.9,0.6,1.7,1.1,2.5c0-0.3,0.3,0.2,0.3-0.2 c0,0,0,0.1,0,0.2C23.7,30.6,23.9,30.5,24,30.4 M22.5,26C22.6,26,22.6,26.1,22.5,26C22.6,26.1,22.6,26.1,22.5,26"></path> <path id="Path_336" class="st3" d="M70.7,25.2L70.7,25.2l0.4,0.1L70.9,25c0.4,0.2,0.8,0.5,1.1,0.9c-0.7-1-1.1-0.8-1.6-1.1 c-0.1-0.2-0.2-0.4-0.3-0.5c-0.1,0-0.1,0-0.2,0C70.1,24.6,70.4,24.9,70.7,25.2"></path> <path id="Path_337" class="st3" d="M19.6,33.4C19.5,33.4,19.5,33.4,19.6,33.4c-0.1,0.4,0.2,0.1,0.2,0.4c0-0.7-0.5-1.2-0.6-2l0-0.1 c-0.1,0.2-0.1,0.4-0.2,0.6C19.2,32.8,19.3,32.6,19.6,33.4"></path> <path id="Path_338" class="st3" d="M74.5,32.9L74.5,32.9C74.6,32.9,74.5,32.9,74.5,32.9"></path> <path id="Path_339" class="st3" d="M54.7,12.7c0.1,0,0.1,0,0.2,0c0,0,0,0-0.1-0.1C54.8,12.7,54.8,12.7,54.7,12.7"></path> <path id="Path_340" class="st3" d="M34.2,18.8c-0.1,0.2-0.2,0.4-0.3,0.6c0.1,0,0.1-0.1,0.2-0.1C34.2,19,34.3,18.8,34.2,18.8"></path> <path id="Path_341" class="st3" d="M59.2,13.9c-0.5-0.3-0.8-0.2-0.4,0.1c0,0-0.1-0.1-0.1-0.1c0,0,0.1,0.1,0.1,0.1 C59.2,14.1,59.6,14.3,59.2,13.9"></path> <path id="Path_342" class="st3" d="M67.1,20.5c0.2,0.1,0.4,0.1,0.4,0c-0.1,0-0.2-0.1-0.2-0.1C67.1,20.4,67.1,20.4,67.1,20.5"></path> <path id="Path_343" class="st3" d="M34.7,18.9c-0.1,0.1-0.2,0.1-0.2,0.1c-0.1,0.1-0.1,0.2-0.2,0.3L34.7,18.9L34.7,18.9"></path> <path id="Path_344" class="st3" d="M25.1,52.2c-0.1-0.3-0.3-0.7-0.4-1c0.3,0.3,0.7,0.1,1,0.6c0.4,0.9-0.4-0.2-0.1,0.6l0.2-0.1 c0,0.1,0.1,0.3,0.2,0.4h0.3c-0.1-0.2-0.2-0.4-0.2-0.7l-1.2-1.6c-0.1,0,0,0.7-0.4,0.3c0.1-0.5,0.1-1.1-0.1-1.6 c-0.2,0.4-0.7-1-0.8-0.6c0.2,0.2,0.2,0.4,0.1,0.6c-0.3-0.7-0.3,0-0.5-0.4c-0.4-1.3,0.2,0-0.1-1.3c0.4,0.5,0.7,1,1.1,1.5 c0.1-0.1-0.3-0.7-0.2-1c-0.1,0.5-0.4-0.2-0.3,0.2c-0.6-1.1-1-2.2-1.3-3.4c0.5,0.1,0.7,2.1,1.2,1.6c-0.2-0.6-0.4-0.5-0.5-1 c0.2-0.5-0.3-1.5-0.3-2.3l-0.1,0.4c-0.1-0.4-0.1-0.9-0.1-1.3l0.1,0.1l-0.1-0.4c0-0.1,0-0.1,0-0.1c-0.1-0.7-0.1-1.5-0.1-2.3 c-0.2,0,0,0.8-0.1,1.2c-0.1,0.1-0.2,0.8-0.3,0.5c0-1-0.2-1.7-0.1-2.8l0,0l-0.1,0.3c-0.1-0.3-0.1-0.6,0-0.9 c-0.2-0.5-0.5-1.1-0.9-1.5c-0.2-0.3-0.1,0.2-0.3-0.1l0.2-0.3c-0.1-0.1-0.4-0.5-0.5-0.4v-0.1c-0.2-0.1-0.4-0.9-0.6-0.6 c-0.2-0.6-0.6-1.4-0.9-2.1c-0.6,2.3-0.9,4.7-1,7.1c0-0.1-0.1-0.2-0.1-0.3c-0.2,2.3,0.5,4.6,0.7,6.4c0.1,0.3,0.4,1.4,0.5,1 c-0.1-0.4,0.2-0.5,0.4-0.5c0.6,1.6-0.2,0.9,0.2,1.9c-0.3,0.4-0.4-0.6-0.8-0.5l0.7,1.5c0.1,0.9,0.7,1.7,0.8,2.5 c-0.1-0.4-0.3,0-0.4-0.6c0,0.1,0.1,0,0.1,0.1c-0.4-1.2-0.4-0.7-0.8-1.5c0.4,1,0.9,2.1,1.2,3c0.1-0.1,0.2,0,0.3,0.2h5 C25.6,52.5,25.3,52.3,25.1,52.2"></path> <path id="Path_345" class="st3" d="M27.7,25.3c0.1-0.1,0.2-0.2,0.3-0.2c0,0,0-0.1,0-0.1C27.9,25,27.8,25.1,27.7,25.3"></path> <path id="Path_346" class="st3" d="M59,18.1l0.1,0C59,18.1,59,18.1,59,18.1"></path> <path id="Path_347" class="st3" d="M71.5,52.7C71.5,52.7,71.6,52.7,71.5,52.7c0.5-0.9,0.8-1.6,1.1-2.4l-0.1,0.8 c0.1-0.6,0.4-1.3,0.7-1.9l0,0.1c0.7-1,0-1.3,0.6-2v0.2c0.4-1.1,0.7-2.2,0.8-3.4c0.3-1,0.4-0.9,0.6-1.6c0-0.3,0-0.7-0.2-0.9l0,0.3 c-0.2,0.3-0.1-0.6-0.2-1.1c-0.3,0.3-0.8,0.2-1.2,1.3c0.1,0.9-0.5,0.8-0.6,1.7c0.3,0.6-0.5,1.3-0.3,2.2c-0.2-0.5-0.4,1-0.5,0.2 c-0.3,0.3-0.2,1.8-0.6,2.4c0-0.1-0.1-0.1-0.1-0.3c-0.1,0.9-0.4,0.5-0.6,1.2l0.3,0.1c0,0.3-0.2,0.3-0.3,0.5 c0.1-0.2,0.4-0.5,0.4-0.2c0,0.3-0.1,0.6-0.2,0.9c-0.1,0-0.1-0.3-0.1-0.5c0,0-0.3,0.7-0.4,0.7c0.1-0.3,0.1-0.6,0.1-0.9 c-0.4,0.9-0.1,0-0.5,0.4c0.4,0-0.2,0.8-0.4,1.3c-0.1,0,0.1-0.4,0.1-0.5c-0.7,0.4-0.7,0.9-0.8,1.5h2.1 C71.3,52.7,71.5,52.6,71.5,52.7"></path> <path id="Path_348" class="st3" d="M61.7,19.4c-0.1-0.5-0.3-0.5-0.4-0.8c-0.1,0-0.2,0-0.3,0.1c0.2,0.2,0.3,0.4,0.4,0.6 C61.5,19.4,61.6,19.4,61.7,19.4C61.7,19.5,61.7,19.5,61.7,19.4"></path> <path id="Path_349" class="st3" d="M61.1,18.3L61.1,18.3L61.1,18.3L61.1,18.3"></path> <path id="Path_350" class="st3" d="M60.5,18.7c0.2,0.1,0.5,0.3,0.7,0.5c-0.1-0.2-0.1-0.3-0.2-0.4C60.8,18.7,60.7,18.7,60.5,18.7"></path> <path id="Path_351" class="st3" d="M38.4,13.5c-0.2,0.1-0.1,0.1-0.1,0.2c0.1-0.1,0.3-0.3,0.5-0.5c-0.2,0-0.1-0.2-0.1-0.3 c-0.1,0-0.2,0.1-0.3,0.1c0,0-0.1,0.1-0.1,0.1c-0.1,0.2-0.2,0.4-0.4,0.5C38.1,13.5,38.2,13.4,38.4,13.5"></path> <path id="Path_352" class="st3" d="M66.2,24.2c0,0.1,0.1,0.1,0.1,0.2l0.4-0.1C66.6,24.2,66.4,24.2,66.2,24.2"></path> <path id="Path_353" class="st3" d="M68.7,24.2c0,0.1,0.1,0.2,0.1,0.4c-0.2-0.1-0.3-0.2-0.4-0.3c-0.6,0-1.3,0.1-2,0.2 c0.2,0.3,0.4,0.5,0.6,0.8c-0.1,0.1-0.4-0.3-0.6-0.6c0.3,0.6,0.7,1,1.3,1.2c0.3,0.6,0.6,1.4,0.3,1.3c0.2,0.2,0.2,0,0.3-0.1 c0.4,0.8,0.8,0.7,1.1,1.2l0-0.5c0.3,0.9,0.4,0,0.7,0.8c-0.3,0-0.5,0.2-0.6,0.4c0.3,0,0.3,0.6,0.4,0.9c0.1-0.3,0.5,0.6,0.5,0 c0.5,0.7,0.4,1.1,0.9,1.6c-0.1-0.4,0.5,0.6,0.5,0.2c0.3,0.7,0.2,1.3-0.1,1.2c-0.1-0.3-0.1-0.7-0.3-0.6c0.2,0.4,0.4,0.9,0.5,1.3 c0,0.4,0,0.8-0.2,0.9c0.4,0.4,0.2,1.3,0.5,1.6c-0.2-0.3-0.2-0.7-0.1-1l0.1,0.2l0-0.1l0.6,0.5c0-0.6-0.3,0-0.5-0.9 c0.2-0.8,1,1.5,1.1,0.7c0-0.6-0.4-0.5-0.7-0.9l0,0.1l-0.5-1.1c0.1-0.1,0.3,0.2,0.3,0.2c-0.3-1.4-0.3-1.6-0.8-3.1 c0,0.1-0.3,0.6-0.6,0c-0.3-0.4-0.1-0.5-0.3-0.9c0.2,0.2,0.5,0.3,0.5,0.7l0.3-0.1c0.8,0.9,0.8,0.3,1.5,1.8c0.3,0,0.7,1.1,0.9,2 l0.1-0.5c0.6,0.8-0.3,0.2,0.4,1.3c-0.2,0.6-0.6,1.5-1,0.9c0.1,0.6,0.2,1.2,0.4,1.8c-0.3,0.5-0.4-0.2-0.7,0 c0.1,0.5,0.3,1.1,0.5,0.7l-0.1,1c-0.1,0-0.1-0.3-0.1-0.5c0,0.5,0.1,0.9,0.3,1.3c-0.1-0.1-0.1-0.3,0-0.4c0.1,0.4,0.2,0.8,0.4,1.2 c-0.2-0.6,0.2-0.7-0.1-1.3c0.2,0.1,0.3,0.3,0.2,0.5c0.2-0.5,0.1-1.1,0.3-1.3c-0.1,0.3,0,0.6,0.2,0.8c0-0.5,0-1-0.2-1.5 c0.4-0.1-0.2-1.4,0.1-1.1c-0.1-0.3-0.2-0.6-0.2-0.9c0.2,0,0.4,0.8,0.6,1.1c0.4,1.6-0.3,0-0.3,0.4c0.1,0.4,0.1,0.8,0.1,1.2 c0-0.1,0.3,0.5,0.2-0.3c0.3,0.5,0.4,1.2,0.3,1.8c0.1,0.1,0.1-0.3,0.1-0.5c0.1,0.1,0.5,0.9,0.5-0.1c0,0.3-0.2-0.5-0.3,0 c-0.1-0.4,0-1.6,0.3-1.1c-0.1-0.6-0.3-1.2-0.5-1.8c0.1-0.1,0.1,0.3,0.2,0.5l-0.3-1.4l-0.1,0.4c0-1.1-0.6-1.7-1-2.4 c0.3,0,0.5,0.7,0.8,1.2c0.2-0.6-0.3-0.3-0.4-1.2c0-0.1,0.1-0.2,0.2-0.1L74.5,33c0-0.2,0-0.1,0.1-0.1c-0.6-1-0.3,0.2-1-1.3 c0.2,0.9,0.5,0.7,0.7,1.5c-0.1,0.5-0.6-0.8-0.8-1c-0.2-0.7,0.2-1-0.4-1.8c0.4,0.6,0.3-0.1,0.6,0.9c0.3,0.5,0-0.3,0.1-0.5 c-0.1-0.2-0.2,0.3-0.4-0.4l0.1,0c-0.2-0.3-0.5-0.7-0.8-1c-0.3-1.1-1.4-2.1-1.5-2.9l-0.2,0.3c-0.4-0.6-0.8-1.2-1.2-1.8 c0.2,0,0.5,0.4,0.8,0.7c-0.3-0.5-0.7-1-1.1-1.5C69.1,24.2,68.9,24.2,68.7,24.2"></path> <path id="Path_354" class="st3" d="M37.1,15.2c-0.4,0.4-0.9,1.4-1.1,1.3c0.2,0.1-0.6,0.9-0.5,1.2c0.2-0.5,0.2-0.1,0.3-0.2 c-0.1,0.1-0.5,0.5-0.4,0.6c-0.1,0-0.2-0.2-0.3-0.3c-0.1,0.2-0.2,0.4-0.2,0.7c0.5-0.2,0.9-0.3,0.9-0.1c0-0.3,0.7-0.6,1.2-0.9 c-0.6,0.2-0.2-0.2,0-0.3l1-0.1c-0.9,0.4,0.3,0.1,0.1,0.4c-0.2,0.4-0.8,0.4-1.3,0.6c1.1,0,1.2-0.7,2.1-0.9c0,0.1,0,0.3-0.4,0.4 c0.2,0,0.7-0.5,1.3-0.5c-0.2,0-0.6-0.2,0-0.4l0.8,0.1c0.9-0.2,0.2-0.4,0.9-0.7L41,15.9c0-0.3,1-0.3,1-0.5 c-0.5,0.1-0.7,0.4-1.2,0.4c-0.2-0.2,0.6-0.3,0.8-0.5c0.5,0,1.1,0,1.6,0.1c0.1,0.4-1.2,0.7-0.9,1.2c1-0.3,2-0.4,3-0.4 c0.9-0.2,0.8-0.5,0.6-0.7c0.3-0.1,0.5-0.1,0.8,0l-0.4,0.2c1-0.2,1.9-0.2,2.9-0.2c0.7,0,0.4-0.3,0.3-0.5l0.7,0.1L50.2,15 c0.2-0.2,0.8-0.1,1.3,0c0,0.1-0.3,0.1-0.3,0.2c0.5,0.1,0.9,0.2,1.4,0.2c0,0.1-0.4,0.3-0.8,0.1c0,0,0-0.1-0.1-0.1l-0.9,0 c1,0,1.5,0.4,1.4,0.7c1,0.1-0.7-0.5,0.4-0.3c1.4,0.8,2.9,0.7,3.4,1.7c0.9,0.1,1.8,0.3,2.6,0.7c0-0.1,0.1-0.1,0.3,0 c-0.1-0.1-0.2-0.3-0.3-0.4c-0.7-0.2-1.4-0.3-1.8-0.8c-0.5-0.1-0.4,0.2-0.7,0.2c-0.4-0.1-0.8-0.3-0.8-0.4c1,0.2,0.4-0.4,1.6,0 c-0.1-0.2-1.1-0.5-1.5-0.7c0.2-0.1,0.1-0.2-0.2-0.4c0.4-0.1,1.1,0,1.6,0c-0.2,0.1,0,0.2-0.1,0.2c0.4,0,0.9,0.1,1.3,0.2 c-0.1-0.5-0.4,0.2-0.5-0.5l0,0.4c-0.2-0.4-0.6-0.2-0.9-0.8c-0.1,0.1-0.1,0.3-0.3,0.1c0.2,0.1,0.1-0.5-0.2-1 c-0.5-0.1-0.9-0.4-1.1-0.9c0.1,0.2,0.4,0.5,0.5,0.4c-0.2-0.3-0.3-0.5-0.5-0.7c-0.8-0.2-1.4-0.6-2-0.8l0.6,0l0,0c0.3-0.1,1,0.2,1,0 c-0.6,0.1-1-0.2-1.8-0.3l0,0c-1.3,0-2.2-0.8-3.1-0.4c0.2,0,0.7,0.3,0.5,0.4c-0.3-0.2-1.1-0.2-1.1-0.3l0.3,0 c-0.5-0.1-1-0.1-1.5-0.1c-0.2,0.2,0,0.3-0.5,0.4c-1.3-0.2,0.5-0.4-0.4-0.6c-0.4,0.1-0.8,0.1-1.2,0.2l-0.3-0.2 c-1.9-0.1-3.2,0.7-5.1,1.1c-0.1-0.3,1.3-0.7,1.8-0.8C41.6,11.5,40.8,12,40,12c-0.1,0-0.3,0.1-0.4,0.1c0,0-0.1,0.1-0.1,0.1 c-0.5,0.7-1,1.4-1.6,2c0,0,0,0.1-0.1,0.1c-0.1,0.1-0.2,0.2-0.3,0.3c0-0.1,0.1-0.1,0.1-0.2c-0.2,0.1-0.4,0.2-0.6,0.3 c-0.3,0.4-0.6,0.8-0.8,1.3C36.7,16.2,36.6,14.9,37.1,15.2 M35.4,18.1L35.4,18.1C35.4,18.1,35.4,18.1,35.4,18.1"></path> <path id="Path_355" class="st3" d="M37.8,13.8c-0.1,0.2-0.5,0.5,0.1,0.3v0c0.1-0.1,0.2-0.2,0.3-0.3C37.9,13.9,37.9,13.8,37.8,13.8 "></path> <path id="Path_356" class="st3" d="M61.1,17.2L61.1,17.2c0,0,0,0.1,0,0.1c0,0.1,0.1,0.1,0.1,0.2c0.1,0,0.1-0.1,0.2,0 c0,0.1,0,0.1,0,0.2c0.2,0.3,0.4,0.5,0.7,0.6c-0.3,0-0.6,0-0.9,0c0,0,0,0,0,0l0.6,0.2c-0.1,0-0.3,0-0.4,0.1c0.3,0.5,0.2,0,0.7,0.6 c0,0,0,0,0,0c0,0,0,0,0,0c0,0-0.1,0-0.1,0.1l0.4,0.5c-0.1,0-0.2,0-0.2,0.1v0c0.2,0.1,0.4,0.3,0.5,0.4c0.8-0.1,1.6-0.2,2.4-0.2 l0.4,0.2c0.3,0,0.6-0.1,0.9-0.1c-0.1-0.1-0.1-0.1-0.1-0.2c0.1,0.1,0.1,0.1,0.2,0.1c0.2,0,0.3,0,0.5-0.1c-0.2-0.3-0.4-0.5-0.4-0.3 c-0.6-0.6-1.6-1.5-1.5-1.8c0.7,0.4,1.1,1.1,1.7,1.5c-0.1-0.1-0.2-0.3-0.1-0.3l0.7,0.7c-0.4-0.6-0.3-0.6-1-1.2c0,0.1,0.1,0.2,0,0.1 c-0.2-0.2-0.4-0.4-0.6-0.5l0.2-0.3c-0.7-0.3-1.5-1.5-2.8-2.1l0.1,0c-0.9-0.6-1.3-0.1-2.3-0.7c0.4,0,0.3-0.1,0.3-0.3 c-0.6-0.2-0.7-0.5-1.2-0.8c0.5,0.4-0.5,0.1-0.2,0.4c0,0.1-0.2,0.1-0.4,0c0.4,0.6,0.8,1.2,1.1,1.9C60.7,16.7,60.9,16.9,61.1,17.2"></path> <path id="Path_357" class="st3" d="M59.1,14.5C59.1,14.5,59.1,14.5,59.1,14.5C59.1,14.5,59.1,14.5,59.1,14.5L59.1,14.5z"></path> <path id="Path_358" class="st3" d="M22.1,25.4v0.1c0.2,0.3,0.2-0.3,0.3-0.4c0-0.1,0-0.1,0-0.2C22.3,25.1,22.2,25.3,22.1,25.4"></path> <path id="Path_359" class="st3" d="M61.7,19.4C61.7,19.4,61.7,19.5,61.7,19.4c0.1,0.2,0.3,0.4,0.4,0.5v0c0-0.1,0.1-0.1,0.2-0.1 L62,19.3c0-0.1,0-0.1,0.1-0.1c-0.4-0.6-0.4-0.1-0.7-0.6c0,0-0.1,0-0.1,0C61.5,18.9,61.6,18.9,61.7,19.4"></path> <path id="Path_360" class="st3" d="M61.2,18.3L61.2,18.3C61.2,18.3,61.2,18.3,61.2,18.3L61.2,18.3C61.2,18.3,61.2,18.3,61.2,18.3"></path> <path id="Path_361" class="st3" d="M62.1,19.2C62.1,19.2,62.1,19.2,62.1,19.2C62.1,19.2,62.1,19.2,62.1,19.2"></path> <path id="Path_362" class="st3" d="M59.1,18.2c0.1,0,0.3,0.1,0.3-0.1c-0.2-0.2-0.5-0.3-0.7-0.4c0,0.2,0.1,0.3,0.3,0.4l0.1,0 C59,18.1,59,18.1,59.1,18.2"></path> <path id="Path_363" class="st3" d="M55,12.6c0,0,0,0.1,0,0.1c0.3-0.1,0.5,0,0.8,0.1c-0.2,0-0.5,0-0.7,0.1c0,0,0,0-0.1,0 c0.2,0.2,0.4,0.5,0.5,0.7c-0.1,0.1-0.3-0.2-0.5-0.4c0.2,0.5,0.6,0.8,1.1,0.9c0.2,0.5,0.4,1.1,0.2,1c0.2,0.2,0.2,0,0.3-0.1 c0.3,0.6,0.7,0.5,0.9,0.8l0-0.4c0.2,0.7,0.4,0,0.5,0.5c0,0,0.1,0,0.1,0c0.3,0.3,0.4,0.5,0.1,0.5c0.7,0.4,1.9,0.7,1.8,1 c0.9,0.5-0.2-0.3-0.2-0.5l0.1,0c-0.3-0.2-0.6-0.3-0.9-0.4c0.1-0.4,1,0.6,1.3,0.4c0.2-0.3,0.5-0.1,0.8,0.3c0,0,0-0.1,0-0.1h0 c-0.2-0.3-0.4-0.5-0.7-0.7c-0.3-0.7-0.7-1.3-1.1-1.9c-0.1,0-0.2-0.1-0.3-0.1l0,0c0,0,0,0,0,0c-0.3-0.1-0.7-0.3-1-0.4 c-0.1-0.2,0.3-0.1,0.7,0c0,0-0.1-0.1-0.1-0.1c-0.7-0.3-1.4-0.7-2.1-1.1C56.1,12.7,55.6,12.6,55,12.6"></path> <path id="Path_364" class="st3" d="M61.5,17.5c-0.1-0.1-0.1,0-0.2,0c0.1,0.1,0.1,0.1,0.2,0.2C61.4,17.6,61.4,17.5,61.5,17.5"></path> <path id="Path_365" class="st3" d="M54.8,12.7L54.8,12.7C54.9,12.7,54.9,12.7,54.8,12.7L54.8,12.7C54.9,12.7,54.9,12.7,54.8,12.7"></path> <path id="Path_366" class="st3" d="M61,18.7L61,18.7c0.1,0.1,0.2,0.3,0.2,0.4c0.1,0.1,0.1,0.1,0.2,0.2 C61.3,19.1,61.2,18.9,61,18.7"></path> <path id="Path_367" class="st3" d="M20.5,35.2L20.5,35.2c0.1,0,0.4,0.4,0.5,0.5L20.7,36c0.2,0.3,0.1-0.2,0.3,0.1 c0.4,0.5,0.7,1,0.9,1.5c0-0.2,0.1-0.3,0.1-0.5c0.3-0.9,0.2,0.8,0.4,0.2c0.2,0.4-0.2,1,0.1,1.2l0.4-0.6c-0.1-0.5,0.3-1,0.3-1.4 L23,36.9c-0.2-0.1,0-0.4,0.1-0.6l-0.4,0.2c-0.1,0.5,0.1,1-0.2,1.3c0-1-0.3-0.8-0.1-2c0.1,0,0,0.2,0.1,0.4c0-0.5,0.1-1,0.3-1.5 c0,0.4,0,1,0.3,0.6l-0.2-0.4c0.1-0.3,0.2-0.1,0.2-0.3c0.2-0.4-0.3,0-0.1-0.6c0.1-0.1,0.2-0.3,0.2-0.2c0.2-0.8,0-0.4,0.2-1.1 c-0.2,0.6-0.6,0.5-0.4-0.2c0.2-0.5,0.3-0.9,0.4-1.3c-0.1-0.1-0.2-0.2-0.2-0.1c0.2,0.2,0,0.4,0,0.4c-0.2-0.5-0.3,0-0.4-0.3 c-0.3-1,0.2,0,0-1c0.2,0.2,0.5,0.5,0.7,0.7c0-0.1,0.1-0.2,0.1-0.3c0-0.1,0-0.1,0-0.2c-0.1,0.4-0.3-0.1-0.3,0.2 c-0.5-0.8-0.8-1.6-1.1-2.5c0.5,0.1,0.6,1.5,1.1,1.1C23.2,29,23,29,22.9,28.7c0.2-0.4-0.2-1.1-0.2-1.7l-0.1,0.3 c-0.1-0.3-0.1-0.6-0.1-1l0.1,0.1l-0.1-0.3c0,0,0-0.1,0-0.1c-0.1-0.3-0.1-0.7-0.1-1.1c0,0-0.1,0-0.1,0.1c0,0.1,0,0.1,0,0.2 c-0.1,0.1-0.2,0.6-0.3,0.4v-0.1c-0.3,0.8-0.8,1.6-1.4,2.3c-0.6,1.1-0.3,1.3-0.6,2.3c-0.1,0-0.2-0.4-0.4,0.1 c-0.2,0.6-0.4,1.2-0.5,1.7l0,0.1c0.1,0.7,0.6,1.3,0.6,2c-0.1-0.3-0.3,0-0.3-0.5c0,0.1,0.1,0,0.1,0.1c-0.3-0.8-0.4-0.6-0.6-1 c0,0,0,0,0,0c0.3,0.7,0.7,1.5,0.9,2.1C20.1,34.4,20.3,35.1,20.5,35.2"></path> <path id="Path_368" class="st3" d="M22,38.2L22,38.2L22,38.2z"></path> <path id="Path_369" class="st3" d="M22.5,26C22.6,26.1,22.6,26.1,22.5,26C22.6,26.1,22.6,26,22.5,26"></path> <path id="Path_370" class="st3" d="M31.5,21.9c-0.2-0.1-0.3-0.1-0.6,0.1c0.2-0.3,0.5-0.4,0.8-0.6c0.1-0.2-0.5,0.2-0.2-0.2 c0.2-0.1,0.5-0.3,0.5-0.1L32,21.1c0.8-0.8,0.9-0.1,1.5-0.9c-0.1,0-0.2,0.2-0.5,0.2c-0.2,0,0.1-0.5,0.5-0.8c0,0.1,0.2,0,0.4-0.2 c0.1-0.2,0.2-0.4,0.3-0.6c0.1,0,0,0.2-0.1,0.5l0,0c0.1,0,0,0.1-0.1,0.2l-0.1,0.2l0.1-0.1v0h0c0,0,0,0,0,0l-0.1,0l0.2-0.2 c0.1-0.1,0.1-0.2,0.2-0.3c-0.2,0-0.1-0.3,0.1-0.4c0.1-0.1,0.2-0.1,0.3-0.1c0-0.2,0.1-0.5,0.2-0.7c0.1,0.1,0.2,0.2,0.3,0.3 c-0.1-0.1,0.3-0.5,0.4-0.6c-0.1,0.1-0.1-0.3-0.3,0.2c-0.1-0.2,0.7-1.1,0.5-1.2c0.2,0.1,0.7-0.9,1.1-1.3c-0.5-0.3-0.4,1-0.9,0.9 c0.2-0.5,0.5-0.9,0.8-1.3c-0.3,0.1-0.6,0.3-0.9,0.4c-0.7,0,0.5-0.6,0.8-0.9c-0.3,0.2-0.6,0.4-1,0.5v-0.3c-1,0.6-0.2,0.4-0.3,0.7 c-0.1,0.5-0.9,0.4-1.2,0.6l0.3-0.2c-0.9,0.3-0.9,0.6-1.6,1h-0.4c1-0.3,0.9-1,1.5-1.1c-1.5,0.4,0-0.7,0.3-1.1 c-0.5,0.3-1,0.5-1.5,0.6c-0.5,0.5-1.1,0.9-1.7,1.2c-0.2,0.5-0.5,0.9-0.8,1.2c-0.7,1.2-0.3,1.4-0.6,2.4c-0.1,0-0.2-0.4-0.4,0.1 c-0.5,1.4-0.9,2.9-1.2,4.4c0.1-0.2,0.3-0.4,0.4-0.6c0.8-0.7,0.2,0.2,0.5,0.2c-0.3,0.4-0.6,0.8-1,1.1c0,0,0,0.1,0,0.1 c0.6-0.6,1.2-1.3,1.6-2C30.3,22.3,30.7,22.7,31.5,21.9"></path> <path id="Path_371" class="st3" d="M71.5,52.7c0-0.1-0.2,0-0.3,0L71.5,52.7C71.6,52.7,71.6,52.7,71.5,52.7 C71.6,52.7,71.6,52.7,71.5,52.7"></path> <path id="Path_372" class="st3" d="M38.4,12.8c-0.3,0-0.3-0.1-0.4-0.2c-0.2,0.4-1.3,0.7-2,1l-0.1-0.2c-0.3,0.2-0.7,0.4-1,0.7 c0.3-0.1,0.1,0.2,0.2,0.3l-0.3,0.1c1.1-0.1,2-1,3.1-1.1c0.1-0.2,0.3-0.4,0.4-0.5C38.3,12.9,38.4,12.9,38.4,12.8"></path> <path id="Path_373" class="st3" d="M37.4,14.6c0.1-0.1,0.2-0.2,0.3-0.3c-0.1,0-0.1,0.1-0.2,0.1C37.5,14.5,37.5,14.6,37.4,14.6"></path> <path id="Path_374" class="st3" d="M33.4,19.9l0.2-0.1v-0.1C33.5,19.8,33.5,19.9,33.4,19.9"></path> <path id="Path_375" class="st3" d="M34.7,18.9L34.7,18.9L34.7,18.9C34.7,18.9,34.7,18.9,34.7,18.9"></path> <path id="Path_376" class="st3" d="M38.8,13.1c-0.1,0.2-0.3,0.4-0.5,0.5c0,0,0,0.1-0.1,0.1l-0.1,0c-0.1,0.1-0.2,0.2-0.3,0.3 c0,0.1,0,0.1-0.1,0.2c0.6-0.6,1.1-1.3,1.6-2c0,0,0.1-0.1,0.1-0.1c-0.5,0.2-0.8,0.5-0.7,0.6c-0.1,0-0.1,0-0.2,0.1 C38.7,12.9,38.6,13.1,38.8,13.1"></path> <path id="Path_377" class="st3" d="M35.4,18.1L35.4,18.1C35.4,18.1,35.4,18.2,35.4,18.1"></path> <path id="Path_378" class="st3" d="M74,33.9l0-0.1L74,33.9C74,33.9,74,33.9,74,33.9"></path> <path id="Path_379" class="st3" d="M22.6,41.6c0,0.1,0.1,0.1,0.1,0.1C22.7,41.7,22.7,41.6,22.6,41.6"></path> <path id="Path_380" class="st3" d="M25.8,28.6L25.8,28.6C25.7,28.6,25.8,28.6,25.8,28.6"></path> <path id="Path_381" class="st3" d="M72.3,35.4l-0.1-0.2C72.2,35.2,72.3,35.3,72.3,35.4"></path> <path id="Path_382" class="st4" d="M60.7,23.8c0,0.1,0,0.4,0.1,0.4l0.1-0.8c-0.2,0.3-0.3-0.2-0.4-0.6c0.3-0.1,0.4,0.4,0.7,0 c-0.1-0.6-0.3-0.7-0.3-1.4c0.4,0.4,0.8-0.3,1-0.8c0-0.1-0.1-0.1-0.1-0.2c-0.4,0.1-0.8,0.2-1.3,0.3c0.2,0.1,0.3,0.2,0.3,0.4 c-0.1,0.4-0.3-0.1-0.5-0.4c-0.1,0-0.3,0.1-0.4,0.1c0.2,0.3,0.4,0,0.4,0.4L59.6,21l0,0.1l0-0.1l-0.1,0c-0.1,0.2-0.1,0.5,0.1,0.7 c-0.2-0.1-0.2-0.4-0.2-0.7c-0.5,0.1-1,0.3-1.5,0.4c-0.1-0.2,0.7-0.5,1.5-0.7c0-0.1,0-0.1-0.1-0.1c-0.7,0.2-1.4,0.4-2.1,0.5 c-1.1,0.2-1.8,0.7-1.6,0.8c-1.2,0.5-1,0.1-1.1,0.1c-0.3,0.5-1.9,0.9-2.9,1.3l-0.1-0.2c-0.5,0.3-1,0.6-1.4,0.9 c0.4-0.2,0.1,0.2,0.2,0.3l-0.4,0.2c1.6-0.2,3.2-1.7,5-1.7c-0.5,0.2,0.2,0.1-0.2,0.3c-0.4,0.1-0.5,0.1-0.6,0.1 c-0.2,0.2-0.8,0.6,0.1,0.3c0.1,0.4-1.6,0.9-2.6,1.5c-1,0.1,0.8-0.7,1.2-1.1c-0.4,0.3-0.9,0.5-1.4,0.6l0-0.3 c-1.5,0.8-0.3,0.4-0.5,0.8c-0.3,0.5-1.4,0.6-1.8,0.8l0.4-0.3c-0.8,0.4-1.6,0.9-2.3,1.4L46.4,27c1.4-0.5,1.4-1.2,2.2-1.5 c-2,0.7,0.1-0.8,0.6-1.3c-0.7,0.4-1.4,0.7-2.1,0.9c-1,1-2.6,1.3-3.4,2.5c-0.6,0.4,0.4-0.5-0.2-0.1c-1.2,0.8-2.4,1.8-3.4,2.8 c-0.6,0.5-0.6,0.3-0.8,0.4c-2.9,2.4-3.3,4-5.9,7.1l0.2-0.6c-0.3,0.4-0.5,0.7-0.7,1c0.1,0.2,0.2,0.4,0.3,0.6c0-0.4,0.3,0.3,0.3-0.2 c-0.1,0.4,0.3,1,0.2,1.1c-0.3-0.5-0.6-0.9-0.9-1.3c0,0.1-0.1,0.2-0.1,0.3c0,0.2,0,0.2-0.1,0.2c0,0,0,0.1,0,0.1c0,0,0,0,0,0 c0,0.2,0.1,0.4,0.1,0.5c0.2,0.4,0.2-0.3,0.5,0.4c0.1-0.2,0.1-0.5-0.1-0.6c0.1-0.5,0.6,1,0.8,0.7c0.2,0.5,0.3,1.1,0.2,1.7l0,0 c0,0,0.1,0,0.1,0s0.1,0,0.1,0c0-0.1,0-0.4,0.1-0.4c0.2,0.3,0.4,0.5,0.5,0.8c0.1,0.2,0.4,0.3,0.6,0.2c0,0,0,0,0,0l-0.1-0.2l0.2,0 c0.3-0.4,0.7-1,0.5-1c0.3,0.1,1-1.3,1.6-1.9c-0.5-0.3-0.7,1.3-1.2,1.3c0.4-1,2.1-2.9,3.1-4.3c1.1-1,0.2,0.2,0.5,0.1 c-0.9,1-1.2,1.2-1.9,2.2c0.9-0.9,2.3-2.6,2.9-3.3c1-1,1.5-0.6,2.7-1.8c-0.3,0-0.3-0.1-0.8,0.2c0.4-0.3,0.7-0.7,1.2-0.9 c0.2-0.3-0.7,0.4-0.2-0.2c0.2-0.1,0.7-0.5,0.7-0.3l-0.1,0.1c1.2-1.1,1.2-0.3,2.2-1.4c-0.2,0-0.3,0.2-0.7,0.4c-0.3,0,0.3-0.6,0.8-1 c0,0.2,0.5-0.3,0.9-0.5c0.4,0-1,0.7-1.1,0.9c0.4-0.2,0.7-0.4,1.1-0.6L47.7,30l1.1-0.9c-0.8,0.5-0.5,0-0.2-0.2 c0.9-0.4,1.8-0.8,1.8-0.6c0-0.3,1.1-0.8,1.8-1.2c-0.9,0.3-0.2-0.2,0-0.3l1.4-0.3c-1.3,0.6,0.4,0.1,0.1,0.4 c-0.3,0.4-1.2,0.6-1.9,0.9c1.5-0.2,1.8-1.1,3.2-1.3c0,0.1,0,0.3-0.6,0.4c0.6-0.3,1.3-0.5,1.9-0.7c-0.2,0-0.8-0.1,0-0.4l1.2,0 c1.3-0.2,0.4-0.4,1.4-0.8l-0.8,0c0.1-0.3,1.5-0.3,1.5-0.6c-0.7,0.1-1,0.4-1.8,0.5c-0.3-0.2,0.9-0.4,1.3-0.6c0.5-0.1,1-0.1,1.5-0.1 C60.7,24,60.7,23.9,60.7,23.8 M59.6,21.1l0.1,0.2C59.7,21.2,59.6,21.2,59.6,21.1"></path> <path id="Path_383" class="st4" d="M88.5,90.7L88.5,90.7C88.5,90.7,88.5,90.7,88.5,90.7"></path> <path id="Path_384" class="st4" d="M43.3,88.4c-0.1,0-0.1-0.1-0.2-0.1C43.2,88.4,43.3,88.5,43.3,88.4"></path> <path id="Path_385" class="st4" d="M87.6,25.8c0,0-0.1,0-0.1,0c0,0.1,0,0.2,0,0.3L87.6,25.8z"></path> <path id="Path_386" class="st4" d="M67.2,20.3c0.3-0.1,0.7-0.2,0-0.3c-0.1,0-0.2,0-0.3,0C67,20.1,67.1,20.2,67.2,20.3"></path> <path id="Path_387" class="st4" d="M100.7,77.8c-0.2,0,0.2-0.5,0.2-0.7c-1.2,1.1-0.8,2-1.9,3.6c0-0.1,0.1-0.3,0.1-0.4 c-0.3,0.8-1,1.2-1.1,1.8c-0.5,0.7-0.4-0.1-1.1,1c0.5-0.1-0.9,1.2-0.7,1.4l-0.8,0.6c-0.4,0.8,0.7,0.2-0.5,1.6 c-1.2,1.1-0.4-0.5-1.1,0l-0.1,0.4L93,87.5l0.1-0.1c-0.3,0.4-0.9,0.9-1,0.8c0-0.1,0.3-0.5,0.3-0.6c-0.4,0.7-2.5,1.6-2.8,2.5 c-0.4,0.2-1.1,0.8-1.2,0.5c-0.2,0.4-1.7,1.1-2.1,1.5c0-0.1-0.5,0.1-0.9,0.4c0.6-0.2,0.3,0.1,0,0.4c-0.5,0.1-1.8,1-2.1,0.8 c-0.7,0.5-0.3,0.6-0.4,0.9c-0.6,0.1-2.1,0.8-2,0.3c0.4-0.1,1.4-0.5,1.1-0.6c-0.8,0.2-0.3,0.2-0.9,0.6c0-0.1-0.5,0-0.4-0.2 c-0.5,0.2-1,0.4-1.5,0.6c0.9-0.2-0.5,0.4,0.1,0.4l0.7-0.6c1-0.4,0.3,0.1,0.7,0c-1.7,0.8-1.3,1-3,1.7c-0.3,0-1,0.1-1.1,0.2 c0.6-0.2,0.4-0.5,0-0.4c-0.9,0.6-1.8,0.3-2.6,0.4c0.7-0.1,0.4,0.2,0.1,0.3c-1.7,0.5-0.7,0-1.5,0c-2.6,0.5-4.3,0.1-6.4,0.3 c0.3,0.1,0.7,0.2,1,0.3l0.3-0.3c0.8,0.2-0.1,0.6-0.6,0.8c-0.1-0.1-1.4-0.1-0.9-0.2c-0.4,0-0.9,0.1-1.3,0.1c0.2,0.1,1,0.1,0.4,0.2 c-0.4-0.1-1.7-0.3-0.9-0.4c-0.7-0.1-1.6,0-1.4,0.1C62,98.2,63.3,98,63.7,98c-0.9-0.1-0.7-0.3-0.5-0.4l-1.2-0.1 c0.3,0,0.3-0.2,0.5-0.2c-0.8-0.2-1.4,0-2-0.3l-0.3,0.2c-2.1-0.6-1.8-0.6-3.8-1.2l0.3,0.3c-1.5-0.1-1-0.6-2.9-1.2 c-1.1-0.3-1.8-0.6-1.8-0.2c-0.4-0.1-0.7-0.3-0.9-0.6c-0.8-0.1-1.6-0.4-2.3-0.9c0.5,0.2,0.9,0.4,1.4,0.6c0-0.3-1.5-0.9-2.2-1.5 c-0.6-0.2-2.4-1-3.4-1.5c0.3,0.5-0.1,0.6-1,0.2c0.2,0-0.9-1-1.4-1.5c0.4,0.1-0.9-1.3,0.3-0.4c0.3,0.3,0.2,0.6,0.7,0.9 c-0.4-0.7-0.8-1.3-1.3-1.9c0.3,0.1,0.7,0.3,0.9,0.6c-0.3-0.1-0.2,0-0.2,0.1c1.4,1,0-0.5,0.3-0.5c-0.4-0.3-1-1-0.8-0.5 c-0.4-0.9-2.1-1.8-2.5-2.7c-0.1,0,0.2,0.5-0.3,0.1c-0.7-0.7-0.5-0.8-0.7-1.2c-0.4-0.3-0.8-0.8-1.1-1.2c-0.5-0.5,0.1,0.8-0.6,0.2 c-0.6-0.3-0.9-1.2-1.4-1.8c-0.3-0.9,0.6,0.7,0.9,0.9c-0.5-0.7-1-1.4-1.5-2.1c-0.2-0.7,0.4,0.2,0.8,0.8c-0.3-0.8-0.8-1.6-1.5-2.2 c-0.2-0.5-0.4-1-0.6-1.5c0.4,0.5,0.7,0.3,1.2,1.1c0.7,1.4-0.5-0.3,0,0.8l0.3,0c0.2,0.5,0.5,0.9,0.9,1.4c0.1,0.3-0.1,0-0.3-0.2 c0.4,0.8,1,1.6,1.6,2.2c-0.7-1.3-2-3-2.1-3.7c-0.4-0.5-0.7-1.1-1.1-1.6h-5.4c0.2,0.5,0.4,0.9,0.5,1.3c0.1-0.4,0.6,1,0.9,1.2l0,0.1 c0.1-0.1,0.6,0.7,0.7,0.9l-0.1,0.5c0.3,0.5,0.1-0.2,0.4,0.3c0.5,0.7,2.1,3.2,1.9,3.6c0.6,0.8,0.9,0.9,1.5,1.8 c-0.1,0-0.3-0.2-0.4-0.2c1.4,1.9,3,3.7,4.7,5.4c1.1,1,2.3,1.8,3.5,2.5c-0.4-0.3-1.4-1.2-0.6-0.8c0.5,0.2,1,0.7,1.6,1 c-0.2,0,1.4,1.2,0.1,0.5c0.1,0.6,2.6,1.6,2.4,1.9C47,97.3,48,97.7,49,98c0.1,0.2-1-0.4-1.1-0.3l0.9,0.4l-0.1,0.1 c1.6,0.9,2.1,0.6,3,0.9l-0.1,0l0.7,0.2l-0.9,0c1.1,0.4,1.7,0.3,2.9,0.7l0.1,0.1l0.7,0.1c-0.1,0-0.2,0-0.1,0.1 c0.8-0.1,2.3,0.5,3,0.3c0.5,0.1,0.8,0.6,1.5,0.5l-0.2,0.3c-1.7-0.3-0.6-0.4-2.3-0.6c1.1,0.8,4.8,1.4,7.2,1.5c2-0.1,5.2,0.2,6-0.5 l-0.2,0.2c1.1,0,2.2-0.1,3.3-0.2c2.6-0.4,5.1-1.1,7.5-2.2l0.6,0c1.9-1.3,6.7-3.5,7.5-5c1.1-0.6-0.1,0.4-0.2,0.6 c0.8-0.4,1.8-1.7,2.6-2c0.1,0.1-1,0.9-0.4,0.6c0.7-0.2,0.6-0.8,1.4-1c-0.4,0,0.6-1.1,1.4-1.9c-0.1,0.1-0.1,0.1-0.2,0.2 c-0.2,0,0.4-0.5,0.7-0.9c0,0.1,0,0.1-0.1,0.2c3.7-3.9,6.8-8.5,9-13.4h-2.2C100.9,77.2,100.8,77.5,100.7,77.8"></path> <path id="Path_388" class="st4" d="M106.2,50.3C106.2,50.3,106.2,50.3,106.2,50.3C106.2,50.3,106.2,50.3,106.2,50.3"></path> <path id="Path_389" class="st4" d="M87,29.2L87,29.2c0.2,0.2,0.5,0.4,0.8,0.6c0-0.1,0-0.3,0-0.4C87.4,29.3,87.2,29.2,87,29.2"></path> <path id="Path_390" class="st4" d="M93.8,34.9c0,0,0.1,0.1,0.1,0.1C93.9,35,93.8,34.9,93.8,34.9"></path> <path id="Path_391" class="st4" d="M87.3,27.6c0.1,0,0.1,0.1,0.2,0.2c0,0,0-0.2-0.1-0.8c-0.2-0.3-0.5-1.2-0.6-1.2 c0,0.3,0.1,1,0.2,1c-0.2-0.3-0.2,0-0.1,0.4c0.1,0,0.1,0.1,0.2,0.1C87,27.3,87.1,27.5,87.3,27.6"></path> <path id="Path_392" class="st4" d="M46,96.9L46,96.9C46,96.8,46,96.8,46,96.9"></path> <path id="Path_393" class="st4" d="M60.2,25.5c0.3-0.1,0.7-0.2,1.1-0.3c-0.1-0.2-0.2-0.4-0.2-0.6C60.6,25,60,25.3,60.2,25.5"></path> <path id="Path_394" class="st4" d="M69.5,24.1c-0.2-0.7-1.1-1.1-1.5-1.9c-0.7-0.8-1.2-0.9-1.3-0.5c0.5,0.2,0.9,0.8,1.3,1 c0,0.4-0.2,0.1-0.5,0.3c0.6,0.4,0.5,0.9,0.7,1.2c0.1,0,0.2,0,0.3,0c-0.1-0.3-0.2-0.6-0.3-0.9c0.4,0.3,0.7,0.6,1,0.9 c0.2,0,0.3,0,0.5,0c-0.1-0.2-0.3-0.3-0.5-0.5L69.5,24.1L69.5,24.1z"></path> <path id="Path_395" class="st4" d="M31,52.7h0.1c0.1-0.4,0.2-0.2,0.3-0.4c0.2-0.6-0.3,0.1,0-0.9c0.1-0.1,0.2-0.4,0.3-0.3 c0.2-0.5,0.3-1.1,0.3-1.7c-0.3,0.9-0.7,0.9-0.4-0.2c0.4-0.9,0.6-1.7,0.9-2.3c-0.2-0.4-0.5-0.9-0.7-1.2c-0.4,0.1-0.9-0.1-1.2-0.3 l0.1-0.1l-0.5-0.2c0.1-0.1,0.7,0.2,0.6,0.1c-0.5-0.1-1-0.3-1.4-0.5c-0.1,0.5-0.2,1-0.3,1.5c-0.1,0-0.2-0.5-0.5,0.1 c-0.7,2.1-1.3,4.2-1.7,6.3L31,52.7c0-0.1,0-0.1,0-0.2C31.1,52.6,31,52.7,31,52.7"></path> <path id="Path_396" class="st4" d="M66.2,24c0.1-0.3-0.5-0.4-0.5-0.7c0.2,0.1,0.6,0.5,0.5,0.2c-0.4-0.7-0.9-1.3-1.6-1.7 c0.4,0,0.3-0.1,0.7-0.2c-0.4-0.1-0.9-1-1.2-0.8l0.6,0.6c-0.2,0-0.3,0.2-0.7-0.1c0.4,0.5,0.8,1,1.2,1.4c-0.2-0.2-0.6-0.4-0.7-0.7 c-0.6-0.2,0.6,1-0.2,0.5c-0.6-0.5-0.6-1.3-1.6-1.6c0.2-0.1,0.2-0.3,0.1-0.5c-0.1,0-0.2-0.1-0.2-0.1c-0.1,0-0.2,0-0.3,0.1 c0.2,0.1,0.3,0.2,0.1,0.5c-0.1-0.1-0.2-0.3-0.2-0.4c0,0-0.1,0-0.1,0c0.3,0.4,0.5,0.9,0.5,1.3l0.1-0.4l0.3,1.1 c-0.1-0.2-0.1-0.5-0.2-0.4c0.2,0.5,0.3,0.9,0.4,1.4c-0.2-0.3-0.3,0.6-0.3,0.9c0.1-0.4,0.3,0.2,0.3,0c0,0.8-0.4,0.2-0.6,0.1 c0,0.1,0,0.5-0.1,0.4c0.1-0.5,0-1-0.3-1.4c0.1,0.6-0.2,0.2-0.2,0.3c0-0.3-0.1-0.6-0.1-1c0.1-0.3,0.7,0.9,0.3-0.3 c-0.2-0.2-0.4-0.9-0.6-0.8c0,0.3,0,0.5,0.1,0.7c0,0,0,0,0.1,0c0,0,0,0-0.1,0c-0.3-0.2,0.2,0.8-0.1,0.9C62,23.6,62,24,62,24.3 c-0.2-0.2-0.2-0.4-0.1-0.6c-0.2,0.2-0.1,0.6-0.3,1c0-0.1,0-0.2-0.1-0.2c0,0-0.1,0.1-0.1,0.1c0,0.3-0.1,0.4,0,0.7 c1.1-0.2,2.2-0.4,3.3-0.3c1.3-0.2,1.2-0.5,1-0.7c0.2,0,0.4,0,0.6,0c-0.2-0.2-0.3-0.4-0.5-0.6C65.9,23.7,66,24.1,66.2,24 M62,24.4 L62,24.4z M62.2,23.7l0,0.3C62.2,23.9,62.2,23.8,62.2,23.7"></path> <path id="Path_397" class="st4" d="M81.2,94.5c-0.2,0.1-0.3,0.2-0.4,0.3C81,94.7,81.1,94.6,81.2,94.5"></path> <path id="Path_398" class="st4" d="M66.1,24.4c0.1,0,0.2,0,0.2,0c0,0,0,0,0,0L66.1,24.4z"></path> <path id="Path_399" class="st4" d="M95,31.5l-0.2-0.2C94.9,31.4,95,31.5,95,31.5"></path> <path id="Path_400" class="st4" d="M83.7,23.7c-1-0.5-2.5-1.1-3.1-1.6c-0.9-0.2-1.8-0.3-2.6-0.3c0.7,0.2,0.8-0.1,1.6,0.3 c-0.3,0-0.7,0-1,0c-1.2-0.3-2.1-0.8-2.9-1l0.9,0.1l-0.1,0c0.4-0.1,1.5,0.3,1.4,0.1c-0.8,0-1.4-0.3-2.5-0.4l0.1,0 c-1.9-0.2-3.2-1-4.4-0.5c0.3,0,1,0.3,0.8,0.4c-0.4-0.2-1.6-0.2-1.5-0.4l0.4,0c-0.7-0.1-1.4-0.2-2.1-0.2c-0.3,0.2,0,0.3-0.8,0.4 c-0.5,0-0.7-0.1-0.7-0.2c-0.2-0.1-0.4-0.2-0.6-0.4c0,0,0,0-0.1,0c0.4,0.5,0.9,0.9,1.4,1.3c0.5,0.3,1,0.6,1.6,0.7 c0.3,0.4,0.5,0.7,0.8,1.1c-0.2,0.1-0.3-0.4-0.7-0.8c-0.4-0.3-0.1,0.3-0.2,0.4c0.5,0.3,0.5,0.8,0.8,1.4c0.1,0,0.3,0,0.4,0 c1,0,0.6-0.3,0.4-0.5l1.1,0.1l-0.2-0.1c0.3-0.2,1.2,0,1.9,0.1c0,0.1-0.4,0.1-0.4,0.1c0.7,0.2,1.4,0.3,2.1,0.3 c0,0.1-0.5,0.2-1.2,0.1c-0.1,0,0-0.1-0.1-0.1l-1.3-0.1c1.5,0.1,2.2,0.6,2.1,0.8c1.4,0.2-1.1-0.5,0.6-0.3c2.1,1,4.2,1,5.1,2.2 c1.3,0.2,2.5,0.6,3.7,1.2c0.1-0.2,1,0.4,1,0.1c-1.3-1-2.8-0.9-3.8-1.8c-0.7-0.2-0.5,0.1-0.9,0.1c-0.6-0.2-1.1-0.4-1.2-0.6 c1.4,0.3,0.6-0.4,2.3,0.3c-0.7-0.4-1.4-0.8-2.2-1c0.2,0,0.1-0.2-0.3-0.4c0.7,0,1.5,0.1,2.2,0.3c-0.2,0,0.1,0.2-0.1,0.2 c0.7,0.1,1.3,0.3,2,0.5c0.5,0.4,0.6,0.6,0.2,0.6c0.9,0.4,1.7,0.8,2.5,1.3c0,0,0,0,0.1-0.1c-0.1-0.1-0.2-0.2-0.3-0.3l0.1,0 c-0.4-0.2-0.9-0.4-1.3-0.7c0-0.4,1.1,0.5,1.6,0.7c-0.2-0.6-0.3-1.1-0.4-1.7c0.4,0.5,0.7-0.1,0.9-0.7c-0.4-0.2-0.7-0.5-1.3-0.9 c0.8,0.6-0.7,0-0.1,0.4c0,0,0,0.1-0.1,0.1c0.2,0.3,0.5,0.2,0.5,0.8c-0.1,0.6-0.5-0.5-0.8-0.8c-0.1,0-0.1,0-0.2-0.1 c0,0-0.1,0.1-0.1,0.2c0.2,0.9,0.5,0.3,0.5,0.9l-0.6-0.5l0,0.1l0.1,0.3c0-0.1-0.1-0.2-0.1-0.3l-0.1-0.2c-0.1,0.4-0.1,0.8,0.1,1.1 c-0.4-0.3-0.1-1.3-0.5-1.7c0,0,0,0,0.1-0.1c-0.4-0.2-0.9-0.4-1.2-0.5c-0.2-0.3,0.7,0,1.3,0.2c0-0.1,0-0.2,0-0.3 C83.4,23.3,83.2,23.4,83.7,23.7"></path> <path id="Path_401" class="st4" d="M105.8,52c0.1,0,0-0.2,0-0.3L105.8,52z"></path> <path id="Path_402" class="st4" d="M105.7,51.8C105.7,51.7,105.7,51.7,105.7,51.8l0-0.2L105.7,51.8L105.7,51.8z"></path> <path id="Path_403" class="st4" d="M60.1,20.5L60.1,20.5C60.1,20.5,60.1,20.5,60.1,20.5c0.1,0,0.2,0,0.2,0 C60.3,20.5,60.2,20.5,60.1,20.5L60.1,20.5C60.1,20.6,60.1,20.6,60.1,20.5"></path> <path id="Path_404" class="st4" d="M59.8,20.6c0,0,0.1,0,0.1,0C59.9,20.6,59.8,20.6,59.8,20.6"></path> <path id="Path_405" class="st4" d="M87.8,26.6c0.1,0.4,0.4,1.4,0.5,1.9c-0.1-0.1-0.1-0.1-0.1-0.1c0.2,0.2,0.5,0.4,0.8,0.6L88,28.9 c0,0,0,0.1,0,0.1l0.5,0.3c-0.2,0-0.4-0.1-0.6,0c0,0.1,0,0.3,0,0.4c0.1-0.6,0.3,0.3,0.3,0c0,0.2,0,0.3-0.1,0.4 c0.8,0.6,1.6,1.2,2.1,1.6c0.2,0.4,0.2,0.6,0,0.6c1.3,0.6,1.6,1.5,2.4,2.3c1.1,0.7-0.7-1.1,0.1-0.6c0.2,0.3,0.6,0.6,0.9,0.9 c-0.4-0.4-1.1-1.3-1.7-1.9c0.5,0.5,0.6,0.2,0.9,0.3c-0.3-0.3-0.6-0.5-0.9-0.8c0.3-0.2,1.1,0.9,1.6,1.2c-0.4,0-0.3,0.1-0.8,0.1 c0.9,0.7,1.7,1.5,2.4,2.5c0.2,0.5-0.4-0.2-0.6-0.4c0,0.3,0.8,0.7,0.7,1c-0.2,0-0.4-0.5-0.7-0.7c0.6,0.8,1.3,1.5,1.8,2.3 c-0.1,0.1-0.6-0.5-0.8-0.9c0.4,0.8,1.1,1.4,1.8,1.9c0.5,0.9,1,1.9,0.7,1.8c0.3,0.3,0.2,0,0.3,0c0.7,1.2,1.1,1.1,1.5,1.8l-0.1-0.6 c0.5,1.3,0.5,0.1,0.9,1.2c-0.3-0.1-0.5,0.1-0.6,0.4c0.3,0.1,0.5,0.8,0.7,1.3c0.1-0.4,0.6,0.9,0.5,0.1c0.7,1,0.6,1.6,1.2,2.3 c-0.1-0.5,0.6,0.9,0.6,0.4c0.4,1.1,0.4,1.9,0.1,1.7c-0.1-0.4-0.2-1-0.4-0.9c0.2,0.7,0.5,1.3,0.7,2c0,0.5,0.2,1.2-0.1,1.3 c0.1,0.2,0.2,0.4,0.3,0.7h0.4c0-0.1,0-0.1,0-0.2c0.1-0.4,0.3-0.2,0.5,0.2h0.3c-0.1-0.1-0.3-0.3-0.3-0.5l0,0.2 c-0.2-0.5-0.4-1.1-0.6-1.6c0.1-0.1,0.4,0.4,0.4,0.4c-0.3-1.5-0.8-3-1.3-4.5c0,0.2-0.2,0.7-0.7-0.2c-0.4-0.6-0.2-0.8-0.4-1.3 c0.2,0.3,0.5,0.5,0.6,1l0.3-0.2c1,1.4,0.9,0.5,1.8,2.6c0.3,0,0.9,1.6,1.2,2.9l0-0.7c0.7,1.2-0.2,0.4,0.4,1.8h0.5 c-0.2-0.5-0.4-0.9-0.6-1.4c0.3,0.1,0.5,0.7,0.7,1.4h0.2c-0.1-0.3-0.4-0.3-0.6-1.3c0-0.2,0.1-0.2,0.2-0.2l-0.5-0.9 c0-0.2,0-0.2,0.1-0.1c-0.7-1.4-0.3,0.2-1.2-1.9c0.3,1.3,0.6,1,0.9,2.2c0,0.7-0.7-1.2-1-1.4c-0.3-1.1,0.1-1.4-0.7-2.6 c0.5,0.9,0.3-0.1,0.8,1.3c0.4,0.7,0-0.4,0.1-0.7c-0.2-0.3-0.2,0.3-0.5-0.6l0.1,0c-0.3-0.5-0.6-1-1-1.4c-0.5-1.5-1.9-3-2.2-4.1 l-0.1,0.4c-0.5-0.9-1.1-1.7-1.8-2.5c0.2,0,0.6,0.6,1.1,1.1c-0.8-1.3-1.8-2.5-3-3.4c0.4,0.8,0.5,0.9,0.8,1.6 c-1-0.6-0.6-1.2-1.7-2.2c0.2-0.2,0.5,0.2,0.5-0.3c-0.6-0.3-1.2-1.1-1.8-1.5c-0.1-0.5,0.6-0.2,1.6,0.9c0.6,1,1.7,1.8,2.1,2.7 L99,37.2c0.8,0.9,1.2,1.5,1.8,2.2l-0.1,0l0.5,0.3l-0.3-0.5c0.5,0.4,1,0.8,1.4,1.3c-0.9-1.4-1.4-1.3-2.1-1.8 c-0.8-1.2-0.8-2-1.6-2.7c0.1-0.2-0.4-0.9,0.2-0.5c0.6,0.6,0.8,1.2,1,1.1c-0.6-0.7-0.2-0.5-1.1-1.5c-0.7-0.3-1.4-0.7-2-1.2 c-0.8-0.7-1.5-1.4-2.2-2.1c0.7,0.7,1.6,1.2,1.6,0.9c-0.6-0.2-1.3-1.5-1.3-1.1c-0.8-0.8-2.4-2.1-2.3-2.4c0.8,0.6,1.7,1.3,2.4,2.1 c-0.2-0.2-0.3-0.4-0.2-0.4l1,1c-0.4-0.6-0.9-1.2-1.5-1.7c0,0.1,0.1,0.2,0,0.2c-0.3-0.2-0.6-0.5-0.8-0.7l0.2-0.3 c-0.9-0.5-2.2-2.1-4-2.9l0.2,0c-0.6-0.4-1.3-0.7-2.1-0.8c0.1,0.4,0.2,0.9,0.3,1.3C87.9,27,87.9,26.5,87.8,26.6"></path> <path id="Path_406" class="st4" d="M62.2,24l0-0.3C62.2,23.8,62.2,23.9,62.2,24"></path> <path id="Path_407" class="st4" d="M35.3,43.1c0,0,0-0.1,0.1-0.1c0-0.1-0.1-0.2-0.1-0.3c-0.4-0.5-0.7-0.3-1-0.7 c0.1,0.4,0.2,0.7,0.4,1.1c0.1,0,0.1,0.1,0.2,0.1c0-0.1,0.1-0.1,0.1-0.2c0,0.1,0.1,0.2,0.2,0.3C35,42.9,35.2,43,35.3,43.1"></path> <path id="Path_408" class="st4" d="M35.3,43.3L35.3,43.3C35.3,43.3,35.3,43.3,35.3,43.3"></path> <path id="Path_409" class="st4" d="M59.9,20.6c0.1,0,0.1,0,0.2,0l0-0.1c-0.3,0-0.6,0-0.9,0.1c0,0,0.1,0.1,0.1,0.1 c0.2,0,0.3-0.1,0.5-0.1C59.8,20.6,59.9,20.6,59.9,20.6"></path> <path id="Path_410" class="st4" d="M60.7,21.2c0-0.2-0.1-0.4-0.3-0.4c-0.1,0-0.2,0.1-0.3,0.1C60.4,21.2,60.7,21.6,60.7,21.2"></path> <path id="Path_411" class="st4" d="M62,22.3L62,22.3C62,22.3,62,22.3,62,22.3"></path> <path id="Path_412" class="st4" d="M59.6,21.7c-0.1-0.2-0.2-0.5-0.1-0.7c-0.1,0-0.1,0-0.1,0C59.4,21.3,59.4,21.6,59.6,21.7"></path> <path id="Path_413" class="st4" d="M35.6,42.3c-0.2,0.1-0.4,0-0.6-0.2c0.1,0.2,0.3,0.4,0.4,0.6C35.5,42.6,35.5,42.4,35.6,42.3"></path> <path id="Path_414" class="st4" d="M59.6,21.1L59.6,21.1l0.5,0.3c0.1-0.4-0.2-0.1-0.4-0.4L59.6,21.1L59.6,21.1L59.6,21.1z"></path> <path id="Path_415" class="st4" d="M35.8,42.4c-0.1,0.1,0-0.4-0.4,0.3c0,0,0.1,0.1,0.1,0.1C35.6,42.7,35.8,42.5,35.8,42.4"></path> <path id="Path_416" class="st4" d="M35.6,42.3c0,0,0-0.1,0.1-0.1l-0.2,0L35.6,42.3z"></path> <path id="Path_417" class="st4" d="M30.1,45.3l0.5,0.2l-0.1,0.1c0.4,0.2,0.8,0.3,1.2,0.3c-0.1-0.1-0.2-0.3-0.2-0.3 c-0.2-0.4-0.1,0.2-0.3-0.2l0.2-0.4c-0.1-0.2-0.5-0.7-0.6-0.6v-0.1c-0.3-0.2-0.6-1.2-0.7-0.9c0-0.1-0.1-0.2-0.1-0.3l0,0 c-0.3,0.5-0.5,1.1-0.6,1.7c0.4,0.3,0.9,0.4,1.4,0.5C30.7,45.5,30.1,45.2,30.1,45.3"></path> <path id="Path_418" class="st4" d="M62.6,20.8c0.2-0.3,0-0.3-0.1-0.5c0,0-0.1,0-0.1,0C62.4,20.5,62.5,20.6,62.6,20.8"></path> <path id="Path_419" class="st4" d="M61.3,24.6c-0.1,0.1-0.2,0.1-0.3,0.2c0.1,0.2,0.1,0.4,0.2,0.6c0,0,0,0,0,0 C61.2,25,61.4,24.8,61.3,24.6"></path> <path id="Path_420" class="st4" d="M60.1,20.6L60.1,20.6C60.1,20.5,60.1,20.5,60.1,20.6L60.1,20.6z"></path> <path id="Path_421" class="st4" d="M61.5,24.5c0,0.1,0.1,0.2,0.1,0.2c0.2-0.4,0.1-0.8,0.3-1c-0.1,0.2,0,0.5,0.1,0.6 c0-0.4,0-0.8-0.2-1.2c0.4-0.1-0.2-1.1,0.1-0.9c-0.1-0.2-0.2-0.5-0.1-0.7c0.2,0,0.3,0.6,0.6,0.8c0.4,1.2-0.3,0-0.3,0.3 c0.1,0.3,0.1,0.6,0.1,1c0-0.1,0.3,0.4,0.2-0.3c0.3,0.4,0.4,0.9,0.3,1.4c0.1,0.1,0.1-0.3,0.1-0.4c0.1,0.1,0.5,0.7,0.6-0.1 c0,0.2-0.2-0.4-0.3,0c-0.1-0.3,0-1.2,0.3-0.9c-0.1-0.5-0.3-1-0.4-1.4c0.1-0.1,0.1,0.3,0.2,0.4l-0.3-1.1l-0.1,0.4 c0-0.5-0.2-1-0.5-1.3c-0.1,0-0.3,0.1-0.4,0.1c0,0.1,0.1,0.1,0.1,0.2c-0.3,0.5-0.7,1.2-1,0.8c0,0.6,0.2,0.8,0.3,1.4 c-0.3,0.4-0.4-0.1-0.7,0c0.1,0.4,0.3,0.9,0.4,0.6l-0.1,0.8c-0.1,0-0.1-0.2-0.1-0.4c0,0.2,0,0.3,0,0.5c0.2,0,0.4,0,0.8,0 C61.6,24.3,61.6,24.4,61.5,24.5"></path> <path id="Path_422" class="st4" d="M34.4,41.7c0,0-0.1,0-0.1,0c0,0-0.1,0-0.1,0C34.3,41.8,34.3,41.8,34.4,41.7"></path> <path id="Path_423" class="st4" d="M59.7,21.3l-0.1-0.2C59.6,21.2,59.7,21.2,59.7,21.3"></path> <path id="Path_424" class="st4" d="M88,29c0,0,0-0.1,0-0.1l-0.4-0.1L88,29z"></path> <path id="Path_425" class="st4" d="M84.1,23.9c0.4,0.1,0.6,0.1,0.2-0.2c-0.1,0-0.1-0.1-0.2-0.1C84.1,23.7,84.1,23.8,84.1,23.9"></path> <path id="Path_426" class="st4" d="M84.4,25.9c-0.2-0.3-0.2-0.7-0.1-1.1l0.1,0.2l0-0.1l0.6,0.5c0-0.7-0.3-0.1-0.5-0.9 c0-0.1,0-0.1,0.1-0.2c-0.2-0.1-0.4-0.1-0.6-0.2c0,0,0,0-0.1,0.1C84.3,24.6,84,25.7,84.4,25.9"></path> <path id="Path_427" class="st4" d="M32.7,38.6c0,0.1,0,0.1-0.1,0.2C32.7,38.8,32.7,38.8,32.7,38.6"></path> <path id="Path_428" class="st4" d="M33.7,39.7c0.1-0.1-0.3-0.7-0.2-1.1c0,0.5-0.4-0.2-0.3,0.2c-0.1-0.2-0.2-0.4-0.3-0.6 c0,0.1-0.1,0.1-0.1,0.2C33.2,38.8,33.5,39.2,33.7,39.7"></path> <path id="Path_429" class="st4" d="M87,25.2c-0.2-0.1-0.3-0.1-0.5-0.2c-0.2,0.6-0.5,1.2-0.9,0.7c0.1,0.6,0.2,1.1,0.4,1.7 c0.1,0,0.2,0,0.2,0c0.2-0.1,0.4-0.1,0.5,0c-0.1-0.4-0.1-0.7,0.1-0.4c-0.1-0.1-0.2-0.7-0.2-1c0.2,0,0.4,0.8,0.6,1.2 c0.1,0.5,0.1,0.7,0.1,0.8c0.2,0.2,0.4,0.4,0.7,0.7c0,0,0.1,0,0.1,0.1c-0.1-0.5-0.4-1.5-0.5-1.9c0.1-0.2,0.1,0.4,0.2,0.6 c-0.1-0.4-0.2-0.9-0.3-1.3c0,0-0.1,0-0.1,0l-0.1,0.3c0-0.1,0-0.2,0-0.3c-0.3-0.1-0.6-0.2-0.9-0.3C87.1,25.5,87,25.3,87,25.2"></path> <path id="Path_430" class="st4" d="M33.3,46.5l0.1-0.2c-0.1,0-0.2,0-0.2,0C33.2,46.4,33.2,46.5,33.3,46.5"></path> <path id="Path_431" class="st4" d="M33.7,46.3c0,0,0,0.1,0,0.1C33.7,46.4,33.7,46.4,33.7,46.3L33.7,46.3L33.7,46.3"></path> <path id="Path_432" class="st4" d="M35,42.1c-0.2-0.3-0.4-0.5-0.5-0.8c-0.1,0,0,0.3-0.1,0.4C34.6,41.8,34.8,41.9,35,42.1"></path> <path id="Path_433" class="st4" d="M87.7,29.7c0.2,0.1,0.3,0.2,0.5,0.4c0-0.1,0.1-0.3,0.1-0.4c0,0.3-0.2-0.5-0.3,0 c0-0.1,0-0.3,0-0.4c-0.1,0-0.2,0-0.3,0C87.7,29.4,87.7,29.6,87.7,29.7"></path> <path id="Path_434" class="st4" d="M85.5,25.3c0-0.6-0.3-0.5-0.5-0.8c-0.1,0-0.2,0-0.3,0C85.1,24.8,85.5,25.9,85.5,25.3"></path> <path id="Path_435" class="st4" d="M86.9,29.1C86.9,29.2,86.9,29.2,86.9,29.1L86.9,29.1L86.9,29.1"></path> <path id="Path_436" class="st4" d="M31.5,40.5c0.3,0.3,1,0.5,0.9,0.7c-0.3-0.1-0.5-0.1-0.8-0.2c0.3,0.4,0.9,0.4,1.2,0.3 c0.1,0.2,0.1,0.3,0.4,0.4c0.1-0.3,0.4-0.2,0.8-0.1c0,0,0,0,0,0c0.1-0.6,0.1-1.2-0.2-1.7c-0.2,0.4-0.7-1.1-0.8-0.7 c0.2,0.2,0.2,0.4,0.1,0.6c-0.3-0.7-0.3,0-0.5-0.4c-0.1-0.3-0.1-0.4-0.1-0.5C32.1,39.4,31.7,39.9,31.5,40.5"></path> <path id="Path_437" class="st4" d="M86,27.8c0.9,0.5,0.4,0.1,0-0.2c0,0,0,0-0.1,0.1C86,27.7,86,27.8,86,27.8"></path> <path id="Path_438" class="st4" d="M32.6,46l-0.4-0.1l0,0c-0.2,0-0.4-0.1-0.5,0c0.2,0.3,0.5,0.8,0.7,1.2c0.1-0.3,0.3-0.6,0.5-0.8 c-0.3,0-0.6,0-0.9-0.1L32.6,46L32.6,46z"></path> <path id="Path_439" class="st4" d="M87,27.4c0.1,0.1,0.2,0.1,0.3,0.2C87.1,27.5,87,27.3,87,27.4"></path> <path id="Path_440" class="st4" d="M35.3,43.3L35.3,43.3L35.3,43.3C35.3,43.3,35.3,43.3,35.3,43.3"></path> <path id="Path_441" class="st4" d="M30.8,44.3L30.8,44.3c0.1,0,0.5,0.5,0.6,0.7l-0.2,0.4c0.2,0.4,0.1-0.2,0.3,0.2 c0.1,0.1,0.1,0.2,0.2,0.3c0.2,0,0.4,0,0.5,0l0,0l0.4,0.1l-0.5,0.1c0.3,0.1,0.6,0.1,0.9,0.1c0,0,0,0,0,0l0.1-0.7 c0,0.5,0.5-0.8,0.7-1.2c0.3,0-0.6,1.3-0.6,1.9c0.1,0,0.1,0,0.2,0c0.3-0.4,0.3-0.2,0.2,0.1h0l0,0c0.3-0.8-0.2-0.4-0.1-0.9 c0.1,0,0.8-1.6,0.8-0.9c0.2-0.5,0.4-0.9,0.5-1.4c-0.1,0-0.1-0.1-0.2-0.1c-0.2-0.3-0.3-0.7-0.4-1.1c0.3,0.3,0.7,0.1,1,0.7 c0,0.1,0.1,0.2,0.1,0.3c0-0.1,0.1-0.1,0.1-0.2c0,0-0.1-0.1-0.1-0.1l0,0c-0.2-0.2-0.3-0.4-0.4-0.6c-0.2-0.2-0.4-0.4-0.6-0.4 c0,0.1-0.1,0.1-0.3-0.1c-0.5-0.1-0.8-0.2-0.9,0.1c-0.3,0-0.3-0.2-0.4-0.4c-0.3,0-0.9,0.1-1.2-0.3c0.3,0.1,0.5,0.1,0.8,0.2 c0-0.2-0.6-0.4-0.9-0.7c-0.4,0.9-0.9,1.8-1.5,2.6c0,0.1,0.1,0.2,0.1,0.3C30.2,43.1,30.5,44.1,30.8,44.3"></path> <path id="Path_442" class="st4" d="M35.3,43.1c-0.1-0.1-0.3-0.2-0.2,0.2c0,0,0,0,0.1,0C35.2,43.3,35.3,43.2,35.3,43.1"></path> <path id="Path_443" class="st4" d="M84.4,25.1c0,0.1,0.1,0.2,0.1,0.3L84.4,25.1z"></path> <path id="Path_444" class="st4" d="M67.1,20.5c0,0,0.1-0.1,0.2-0.1c-0.1-0.1-0.2-0.2-0.3-0.3c-0.2,0-0.3,0-0.5,0.1 C66.6,20.2,66.8,20.4,67.1,20.5"></path> <path id="Path_445" class="st4" d="M69.2,22.9c0.1-0.1-0.2-0.7,0.2-0.4c0.4,0.4,0.5,0.9,0.7,0.8c-0.2-0.4-0.5-0.8-0.8-1.1 c-0.6-0.1-1.1-0.3-1.6-0.7c-0.5-0.4-1-0.9-1.4-1.3c-0.3,0-0.6,0.1-0.9,0.1l-0.4-0.2c-0.8,0-1.6,0.1-2.4,0.2 c0.1,0.1,0.2,0.1,0.2,0.1c0.1,0.3,0.1,0.5-0.1,0.6c1,0.3,1,1.1,1.6,1.6c0.8,0.4-0.5-0.8,0.2-0.5c0.1,0.3,0.5,0.5,0.7,0.7 c-0.5-0.4-0.9-0.9-1.2-1.4c0.4,0.3,0.5,0.1,0.7,0.1l-0.6-0.6c0.2-0.2,0.8,0.7,1.2,0.8c-0.4,0-0.3,0.1-0.7,0.2 c0.7,0.4,1.2,1,1.6,1.7c0.1,0.3-0.3-0.1-0.5-0.2c0,0.2,0.5,0.4,0.5,0.7c-0.2,0-0.3-0.3-0.5-0.4c0.2,0.2,0.3,0.4,0.5,0.6 c0.2,0,0.4,0,0.5,0.1l-0.4,0.1c0,0,0,0,0,0c0.8-0.1,1.4-0.1,2-0.2c-0.2-0.3-0.1-0.8-0.7-1.2c0.2-0.2,0.4,0.1,0.5-0.3 c-0.4-0.2-0.9-0.7-1.3-1c0-0.4,0.5-0.2,1.3,0.5c0.4,0.7,1.2,1.2,1.5,1.9l-0.1-0.4c0.2,0.2,0.3,0.4,0.5,0.5c0.1,0,0.1,0,0.2,0 C69.7,23.6,69.7,23.2,69.2,22.9"></path> <path id="Path_446" class="st4" d="M68.7,24.2c0.2,0,0.4,0,0.7,0c-0.3-0.3-0.7-0.6-1-0.9C68.4,23.6,68.5,23.9,68.7,24.2"></path> <path id="Path_447" class="st5" d="M42.3,57.1L42.3,57.1C42.3,57.1,42.3,57.1,42.3,57.1"></path> <path id="Path_448" class="st5" d="M31.3,58.6c-0.1,0-0.1,0-0.2,0C31.2,58.6,31.3,58.6,31.3,58.6"></path> <path id="Path_449" class="st5" d="M104.1,53.6l-0.1-0.4C104,53.4,104.1,53.5,104.1,53.6"></path> <path id="Path_450" d="M7.5,75.7c-2.8,0-4.9,0-7.4,0.1c0.1-3.6,0.1-5.6,0.1-9.1c0-4.9-0.1-10-0.2-12.6c0,0,1.9,0.1,3.1,0.1 c1.2,0,2.1,0,2.9-0.1C6,55.7,6,59.8,6,64.6c0,1.8,0,4-0.1,5.6c1.9-0.1,2.3-0.1,4.5-0.1c1.6,0,3,0,3.9-0.1c0,1-0.1,1.8-0.1,3 c0,1,0,1.9,0.1,2.7C14.3,75.7,10.2,75.7,7.5,75.7"></path> <path id="Path_451" d="M22.5,66.3c0,3.7,0.1,7.2,0.1,9.4c-1.2,0-1.8-0.1-2.9-0.1c-1.2,0-2,0-3.1,0.1c0-1.5,0.1-5.7,0-9.4 c0-4.8-0.2-9-0.3-12.3c1.2,0.1,2.2,0.1,3.3,0.1c1,0,1.9,0,3-0.1C22.6,57.3,22.5,61.4,22.5,66.3"></path> <path id="Path_452" d="M44.5,65.5c0,3.6,0.1,7,0.1,10.2c-0.8,0-2-0.1-3.1-0.1c-1.3,0-2.4,0-3.4,0.1c-1.6-2.4-3-4.9-4.3-7.5 c-1.3-2.3-2.3-4.7-3.1-7.2l-0.1,0c0.2,1.8,0.3,3.5,0.2,5.3c0,3.9,0.1,7,0.1,9.3c-1,0-1.8-0.1-3-0.1s-2.1,0-3,0.1 c0.1-4,0.1-6.3,0.1-10.6c0-3.4-0.1-9.3-0.2-11.1c1,0,2.6,0.1,4.2,0.1c1.4,0,2.5,0,3.5-0.1c1.4,2.6,1.7,3.4,3.5,7.5 c1.1,2.4,2,4.9,2.7,7.4l0.1,0c-0.2-2.3-0.3-4.3-0.3-6.3c0-2.9-0.1-5.3-0.2-8.6c1.1,0.1,2,0.1,3.2,0.1c1.2,0,2.1,0,3-0.1 C44.6,57.4,44.5,61,44.5,65.5"></path> <path id="Path_453" d="M64.2,60.7c-1.9-1.3-3.7-1.6-6.4-1.5c-4.4,0-6,1.7-6,5.7c0,4.2,1.8,5.8,5.8,5.8c0.5,0,1,0,1.4-0.2 c-0.1-0.8-0.2-1.7-0.2-2.6c0-1,0-2.1-0.1-3.1c0.9,0.1,2,0.1,2.9,0.1s1.7,0,2.6-0.1c-0.1,1.7-0.1,3.4-0.1,5.3c0,2.6,0,3.9,0.1,4.9 c-0.5,0.1-1.3,0.3-2,0.5c-1.5,0.3-3,0.5-4.5,0.5c-7.2,0-11.6-4.6-11.7-11.2c0-7.2,4.4-11.5,11.7-11.5c3,0,5.4,0.5,7,2 C64.5,57.1,64.3,58.9,64.2,60.7"></path> <path id="Path_454" d="M77.9,59.6c-2.5,0-3.4,0-5.1-0.1c0,0,0.1,1,0.1,1.6c0,0.6,0,1.2-0.1,1.8c1.6,0,2.4,0,3.7-0.1 c1.8,0,3.5,0,4.4-0.1c0,0.9,0,1.4,0,2.1c0,0.7,0,1.6,0,2.3c-1.6-0.1-2.5-0.1-4.2-0.1c-1,0-2.1,0-3.9-0.1c0.1,0.5,0.1,1.1,0.1,1.6 c0,0.6,0,1.2-0.1,1.8c0.9,0,2.5-0.1,4.5-0.1c1.9,0,3.6,0,4.8-0.1c0,1-0.1,2-0.1,2.8c0,1,0,1.6,0.1,2.8c-1.4,0-3.7-0.1-6.5-0.1 c-3.4,0-6.5,0.1-8.6,0.1c0.1-3.8,0.1-6.6,0.1-10.9c0-4.3-0.1-8.8-0.2-10.8c1.8,0,4,0.1,7.4,0c4.1,0,8-0.1,8-0.1 c0,0.9-0.1,1.6-0.1,2.6c0,1.2,0,1.8,0.1,2.9C80.9,59.6,80.2,59.6,77.9,59.6"></path> <path id="Path_455" d="M102.3,56.8c-0.6,1.3-1.2,2-4.9,7.6c-2.9,4.4-3.4,5-4.6,6c1.1-0.1,2.1-0.1,3.6-0.1c2.5,0,3.7,0,5.9-0.1 c-0.1,1.2-0.1,1.6-0.1,2.7s0,1.8,0.1,2.8c-2.8,0-5.3-0.1-8.7,0c-3.4,0-5.9,0.1-8.7,0.1c-0.1-0.9,0-1.8,0.3-2.6 c0.4-1,1.4-2.2,4.8-7.4c3.1-4.6,3.7-5.5,4.7-6.3c-1.6,0.1-2.9,0.1-4.9,0.1c-2.1,0-3.2,0.1-5.1,0.1c0.1-1,0.1-1.9,0.1-2.9 c0-0.9,0-1.9-0.1-2.8c2.3,0,5.6,0.1,9.2,0c3.3,0,5.9-0.1,8.9-0.1C102.7,54.9,102.6,55.9,102.3,56.8"></path> <path id="Path_456" d="M115.9,59.4c-2.5,0-3.4,0-5.1-0.1c0,0,0.1,1,0.1,1.6c0,0.6,0,1.2-0.1,1.8c1.6,0,2.4,0,3.7-0.1 c1.8,0,3.5,0,4.4-0.1c0,0.9,0,1.4,0,2.1c0,0.7,0,1.6,0,2.3c-1.6-0.1-2.5-0.1-4.2-0.1c-1,0-2.1,0-3.9-0.1c0.1,0.5,0.1,1.1,0.1,1.6 c0,0.6,0,1.2-0.1,1.8c0.9,0,2.5-0.1,4.5-0.1c1.9,0,3.6,0,4.8-0.1c0,1-0.1,2-0.1,2.8c0,1,0,1.6,0.1,2.8c-1.4,0-3.7-0.1-6.5-0.1 c-3.4,0-6.5,0.1-8.6,0.1c0.1-3.8,0.1-6.6,0.1-10.9c0-4.3-0.1-8.8-0.2-10.8c1.8,0,4,0.1,7.4,0c4.1,0,8-0.1,8-0.1 c0,0.9-0.1,1.6-0.1,2.6c0,1.2,0,1.8,0.1,3C119,59.4,118.3,59.4,115.9,59.4"></path> <path id="Path_457" d="M140.8,60.7c-1.9-1.3-3.7-1.6-6.4-1.5c-4.4,0-6,1.7-6,5.7c0,4.2,1.8,5.8,5.8,5.8c0.5,0,1,0,1.4-0.2 c-0.1-0.8-0.2-1.7-0.2-2.6c0-1,0-2.1-0.1-3.1c0.9,0.1,2,0.1,2.9,0.1s1.7,0,2.6-0.1c-0.1,1.7-0.1,3.4-0.1,5.3c0,2.6,0,3.9,0.1,4.9 c-0.5,0.1-1.3,0.3-2,0.5c-1.5,0.3-3,0.5-4.5,0.5c-7.2,0-11.6-4.6-11.7-11.2c0-7.2,4.4-11.5,11.7-11.5c3,0,5.4,0.5,7,2 C141,57.1,140.8,58.9,140.8,60.7"></path> <path id="Path_458" d="M154.9,60c-2.5,0-3.4,0-5.1-0.1c0,0,0.1,1,0.1,1.6c0,0.6,0,1.2-0.1,1.8c1.6,0,2.4-0.1,3.7-0.1 c1.8,0,3.5,0,4.4-0.1c0,0.9,0,1.4,0,2.1c0,0.7,0,1.6,0,2.3c-1.6-0.1-2.5-0.1-4.2-0.1c-1,0-2.1,0-3.9-0.1c0.1,0.5,0.1,1.1,0.1,1.6 c0,0.6,0,1.2-0.1,1.8c0.9,0,2.5-0.1,4.5-0.1c1.9,0,3.6,0,4.8-0.1c0,1-0.1,2-0.1,2.8c0,1,0,1.6,0.1,2.8c-1.4,0-3.7-0.1-6.5-0.1 c-3.4,0-6.5,0.1-8.6,0.1c0.1-3.8,0.1-6.6,0.1-10.9c0-4.3-0.1-8.8-0.2-10.8c1.8,0,4,0.1,7.4,0c4.1,0,8-0.1,8-0.1 c0,0.9-0.1,1.6-0.1,2.6c0,1.2,0,1.8,0.1,3C158,60,157.2,60,154.9,60"></path> <path id="Path_459" d="M181.3,65.9c0,3.6,0.1,7,0.1,10.2c-0.8,0-2-0.1-3.1-0.1c-1.3,0-2.4,0-3.4,0.1c-1.6-2.4-3-4.9-4.3-7.5 c-1.3-2.3-2.3-4.7-3.1-7.2l-0.1,0c0.2,1.8,0.3,3.5,0.2,5.3c0,3.9,0.1,7,0.1,9.3c-1,0-1.8-0.1-3-0.1s-2.1,0-3,0.1 c0.1-4,0.1-6.3,0.1-10.6c0-3.4-0.1-9.3-0.2-11.1c1,0,2.6,0.1,4.2,0.1c1.4,0,2.5,0,3.5-0.1c1.4,2.6,1.7,3.4,3.5,7.5 c1.1,2.4,2,4.9,2.7,7.4l0.1,0c-0.2-2.3-0.3-4.3-0.3-6.3c0-2.9-0.1-5.3-0.2-8.6c1.1,0.1,2,0.1,3.2,0.1c1.2,0,2.1,0,3-0.1 C181.3,57.7,181.3,61.3,181.3,65.9"></path> <path id="Path_460" d="M53.3,42h-1.2c0.1,0.4,0.1,0.9,0.1,1.3c0,0.5,0,0.7-0.1,1.4c0.4,0,0.8-0.1,1.2-0.1c0.9,0,1.2-0.4,1.2-1.4 C54.6,42.3,54.3,42,53.3,42 M53.5,47.3c-0.4,0-0.9,0-1.3-0.1c0.1,0.5,0.1,1,0.1,1.6c0,0.6,0,1.1,0.1,1.8c-0.7,0-1,0-1.6,0 c-0.6,0-1.1,0-1.6,0c0-1.6,0-3.4,0-5.6c0-2.3,0-4.4-0.1-5.8l4.4,0c2.7,0,4,1.5,4.1,4.1c0.1,2.1-1.6,3.9-3.8,4 C53.7,47.3,53.6,47.3,53.5,47.3"></path> <path id="Path_461" d="M63.1,42.3H63c-0.3,1.5-0.7,3-1.2,4.4c0.9-0.1,1.7-0.1,2.6,0C63.9,45.3,63.5,43.8,63.1,42.3 M67.1,50.8 c-0.6,0-1.1,0-1.7,0c-0.2-1-0.4-1.7-0.5-2c-0.6,0.1-1.2,0.1-1.8,0.1c-0.8,0-1,0-1.8-0.1c0,0.4-0.2,1-0.5,2.1c-0.5,0-1.1,0-1.8,0 c-0.5,0-0.9,0-1.5,0c0.3-0.8,0.7-2.3,1.1-3.7c0.9-3,1.9-6.1,2.2-7.7c0.5,0,1.6,0,2.2,0c0.6,0,1.7,0,2.1-0.1 c0.4,1.4,1.4,4.7,2.3,7.6c0.4,1.5,0.8,2.8,1.1,3.7C68.1,50.8,67.6,50.8,67.1,50.8"></path> <path id="Path_462" d="M74.7,42.1h-1.5c0,0.5,0.1,0.9,0.1,1.4c0,0.5,0,0.9-0.1,1.4h1.5c0.9,0,1.2-0.5,1.2-1.4 C76,42.5,75.6,42.1,74.7,42.1 M77.6,50.8c-0.7,0-1.2,0-1.8,0c-0.3-0.4-0.5-1.1-1-2c-0.3-0.6-0.7-1.2-1.1-1.8l-0.4-0.1 c0,0.5,0,0.9,0,1.8s0,1.3,0.1,2.1c-0.6,0-1.2,0-1.7,0c-0.6,0-0.9,0-1.5,0c0-1.3,0.1-2.6,0.1-4.3c0-2.8-0.1-5.6-0.1-7.1l4.7,0 c2.8,0,4.1,1.2,4.1,3.8c0.1,1.7-1.1,3.2-2.7,3.3v0.1c0.6,0.3,1.1,0.9,1.4,1.5c0.9,1.6,1.2,2.1,1.5,2.6 C78.6,50.8,78.1,50.8,77.6,50.8"></path> <path id="Path_463" d="M85.6,42c0.5-0.8,0.9-1.7,1.3-2.6c0.5,0,1.2,0,1.6,0c0.5,0,1.4,0,1.8,0c0,0.4-0.2,0.7-1.6,3 c-0.5,1-1.1,1.9-1.8,2.7c0.7,0.8,1.2,1.6,1.7,2.5c1.3,2.2,1.7,2.8,1.7,3.1c-0.5,0-1.3,0-1.8,0c-0.5,0-1.1,0-1.7,0 c-0.4-1-0.9-1.9-1.5-2.8c-0.4-0.8-1-1.8-1.5-2.6c0,2.1,0.1,4.5,0.1,5.4c-0.5,0-1.1,0-1.6,0c-0.5,0-1,0-1.6,0c0-1.5,0-3.4,0-5.7 s-0.1-4.2-0.1-5.7c0.5,0,1,0,1.6,0c0.6,0,1.1,0,1.6,0C84,41,84,42.6,84,44.9C84.4,44.2,85.1,42.9,85.6,42"></path> <path id="Path_464" d="M180.8,87.6c-0.4,0-0.6,0-1.1,0c0-0.4,0-0.6,0-1s0-0.5,0-0.9c0.4,0,0.6,0,1.1,0c0.5,0,0.7,0,1.1,0 c0,0.5,0,0.6,0,0.9s0,0.6,0,1C181.4,87.6,181.2,87.6,180.8,87.6 M181.7,82.3c-0.1,1-0.1,2.7-0.1,2.7c-0.5,0-1.1,0-1.6,0 c0,0-0.1-1.6-0.1-2.7c-0.1-1.2-0.2-3.1-0.2-3.1c0.5,0,0.6,0,1.1,0c0.4,0,0.7,0,1.1-0.1C181.9,79.2,181.8,81.1,181.7,82.3"></path> <path id="Path_465" d="M116.9,84.7c0,1.1,0,2.3,0,3.2c-0.2,0-0.6,0-0.8,0c-0.3,0-0.6,0-0.9,0c0-1,0-1.7,0-2.8c0-0.8,0-1.4,0.1-2h0 c-0.1,0.7-0.3,1.7-0.5,2.4c-0.3,1.1-0.4,1.5-0.7,2.4c-0.2,0-0.5,0-0.7,0s-0.5,0-0.8,0c-0.3-0.8-0.4-1.3-0.8-2.5 c-0.2-0.6-0.4-1.6-0.5-2.3h0c0,0.6,0.1,1.3,0.1,2s0,1.8,0,2.8c-0.2,0-0.5,0-0.8,0c-0.3,0-0.6,0-0.9,0c0-0.9,0-2.1,0-3.3 c0-1.2,0-2.4,0-3.2c0.5,0,1,0,1.3,0c0.3,0,0.8,0,1.1,0c0.2,0.5,0.3,0.8,0.6,1.9c0.3,1,0.5,2,0.6,3h0c0.1-1,0.4-2,0.6-3 c0.2-0.6,0.4-1.3,0.6-1.9c0.3,0,0.7,0,1.1,0s1,0,1.4,0C116.9,81.8,116.9,83.2,116.9,84.7"></path> <path id="Path_466" d="M121.3,82.9c-1.1,0-1.5,0.5-1.5,1.7c0,1.1,0.4,1.7,1.5,1.7c1.1,0,1.5-0.6,1.5-1.7 C122.7,83.4,122.3,82.9,121.3,82.9 M121.3,88c-1.7,0.1-3.1-1.3-3.2-3c0-0.2,0-0.3,0-0.5c0-2.1,1.1-3.3,3.2-3.3s3.2,1.2,3.2,3.3 S123.3,88,121.3,88"></path> <path id="Path_467" d="M128.6,82.8c-1.1,0-1.5,0.5-1.5,1.7c0,1.1,0.4,1.7,1.5,1.7s1.5-0.6,1.5-1.7 C130.1,83.4,129.7,82.8,128.6,82.8 M128.6,88c-1.7,0.1-3.1-1.3-3.2-3c0-0.2,0-0.3,0-0.5c0-2.1,1.1-3.3,3.2-3.3s3.2,1.2,3.2,3.3 S130.6,88,128.6,88"></path> <path id="Path_468" d="M134.6,85c0,1.1,0,2.1,0,2.8c-0.4,0-0.5,0-0.9,0c-0.4,0-0.6,0-0.9,0c0-0.5,0-1.7,0-2.8 c0-1.4-0.1-2.7-0.1-3.7c0.3,0,0.7,0,1,0c0.3,0,0.6,0,0.9,0C134.6,82.3,134.6,83.6,134.6,85"></path> <path id="Path_469" d="M140.6,83h-0.7c0.1,0.5,0.1,1,0.1,1.5c0,0.5,0,1.1-0.1,1.6h0.7c1,0,1.3-0.5,1.3-1.6 C142,83.3,141.7,83,140.6,83 M140.6,87.8l-2.4,0c0-1.1,0-1.9,0-3.3c0-1.2,0-2.1-0.1-3.2l2.4,0c2.1,0,3.1,1,3.1,3.2 C143.7,86.6,142.7,87.8,140.6,87.8"></path> <path id="Path_470" d="M146.5,85c0,1.1,0,2.1,0,2.8c-0.4,0-0.5,0-0.9,0c-0.4,0-0.6,0-0.9,0c0-0.5,0-1.7,0-2.8 c0-1.4-0.1-2.7-0.1-3.7c0.3,0,0.7,0,1,0c0.3,0,0.6,0,0.9,0C146.5,82.3,146.5,83.5,146.5,85"></path> <path id="Path_471" d="M152.6,83.3c-0.5-0.4-1-0.5-1.6-0.4c-0.8-0.1-1.6,0.5-1.7,1.3c0,0.1,0,0.2,0,0.3c-0.1,0.8,0.6,1.6,1.4,1.7 c0.1,0,0.2,0,0.3,0c0.6,0,1.1-0.1,1.6-0.4c0,0.5,0.1,1,0.1,1.5c-0.5,0.4-1.1,0.6-1.7,0.6c-1.9,0-3.4-1.5-3.4-3.4s1.5-3.4,3.4-3.4 c0.7-0.1,1.3,0.1,1.9,0.5C152.7,82.2,152.6,82.8,152.6,83.3"></path> <path id="Path_472" d="M159.3,84.6c0,1.2,0,2.2,0,3.1c-0.3,0-0.5,0-0.8,0c-0.4,0-0.7,0-1,0c0-0.5,0-0.9,0-1.3c0-0.5,0-1.2,0-1.2 s-0.5,0-1,0s-0.7,0-1,0c0,0,0,0.6,0,1.2s0,0.9,0,1.3c-0.3,0-0.5,0-0.9,0s-0.6,0-0.9,0c0-1.1,0-1.9,0-3.1c0-1.3,0-2.4-0.1-3.3 c0.3,0,0.5,0,0.9,0c0.4,0,0.9,0,0.9,0c0,0.5,0,0.9,0,1.2c0,0.6,0,1.1,0,1.3c0.3,0,0.7,0,1,0c0.3,0,0.7,0,1,0c0-0.2,0-0.7,0-1.3 c0-0.4,0-0.8,0-1.2c0,0,0.7,0,1,0s0.5,0,0.8,0C159.3,82.4,159.3,83.3,159.3,84.6"></path> <path id="Path_473" d="M164.4,82.9c-0.3,0-0.6,0-1-0.1c0.1,0.7,0.1,1.4,0.1,2.1c0,1.1,0,1.8,0,2.8c-0.3,0-0.6,0-0.9,0 s-0.6,0-0.9,0c0-1,0-1.7,0-2.9c0-0.7,0-1.3,0.1-2c-0.3,0-0.6,0.1-1,0.1c-0.2,0-0.6,0-0.9,0c0-0.2,0-0.6,0-0.8c0-0.2,0-0.6,0-0.8 c0.9,0,1.9,0,2.6,0s1.8,0,2.6,0c0,0.3,0,0.6,0,0.8c0,0.3,0,0.6,0,0.8C165,82.9,164.7,82.9,164.4,82.9"></path> <path id="Path_474" d="M168.7,85c-0.4,0-0.7,0-1,0c0,0.2,0,0.3,0,0.6s0,0.4,0,0.7h1.1c0.5,0,0.7-0.2,0.7-0.6 C169.4,85.2,169.2,85,168.7,85 M168.6,82.6h-1c0,0.2,0,0.4,0,0.7c0,0.2,0,0.3,0,0.6c0.3,0,0.7,0,1,0c0.5,0,0.7-0.2,0.7-0.7 S169.3,82.6,168.6,82.6 M169.8,84.4L169.8,84.4c0.7,0,1.2,0.6,1.2,1.3c0,0,0,0,0,0c0,1.1-0.7,1.8-2.1,1.8l-2.8,0 c0-0.7,0-1.8,0-3.2c0-1.4,0-2.7-0.1-3.3l2.7,0c1.5,0,2.2,0.6,2.2,1.7C171.1,83.6,170.5,84.3,169.8,84.4 C169.8,84.4,169.7,84.4,169.8,84.4"></path> <path id="Path_475" d="M173.7,84.9c0,1.1,0,2.1,0,2.8c-0.4,0-0.5,0-0.9,0c-0.4,0-0.6,0-0.9,0c0-0.5,0-1.7,0-2.8 c0-1.4-0.1-2.7-0.1-3.7c0.3,0,0.7,0,1,0c0.3,0,0.6,0,0.9,0C173.7,82.2,173.7,83.4,173.7,84.9"></path> <path id="Path_476" d="M177.7,85.6c0,1.4-0.5,2.1-2.1,2.2c-0.4,0-0.8,0-1.2-0.1c0-0.3,0.1-0.6,0.1-0.9c0-0.3,0-0.6,0-0.8 c0.3,0,0.6,0.1,0.9,0.1c0.5,0,0.6-0.1,0.6-0.9c0-1.8-0.1-3.2-0.1-3.9c0.4,0,0.6,0,0.9,0c0.3,0,0.7,0,1,0 C177.7,81.9,177.7,83.8,177.7,85.6"></path> </g> </g> </svg> 